<svg width="400" height="700" viewBox="0 0 400 700" fill="none" xmlns="http://www.w3.org/2000/svg">
<g clip-path="url(#clip0_4_2)">
<rect width="400" height="700" rx="16" fill="black"/>
<rect width="400" height="200" fill="#29ED73"/>
<path d="M20.7557 34.0909V29.6364H38.4545V34.0909H32.3295V50H26.8807V34.0909H20.7557ZM40.5352 50V29.6364H46.0636V37.5909H53.3817V29.6364H58.9102V50H53.3817V42.0455H46.0636V50H40.5352ZM61.5352 50V29.6364H76.2113V34.0909H67.0636V37.5909H75.4556V42.0455H67.0636V45.5455H76.1715V50H61.5352ZM32.2898 66C32.2367 65.3371 31.9882 64.8201 31.544 64.4489C31.1065 64.0777 30.4403 63.892 29.5455 63.892C28.9754 63.892 28.508 63.9616 28.1435 64.1009C27.7855 64.2334 27.5204 64.4157 27.348 64.6477C27.1757 64.8797 27.0862 65.1449 27.0795 65.4432C27.0663 65.6884 27.1094 65.9105 27.2088 66.1094C27.3149 66.3016 27.4806 66.4773 27.706 66.6364C27.9313 66.7888 28.2197 66.928 28.571 67.054C28.9223 67.1799 29.34 67.2926 29.8239 67.392L31.4943 67.75C32.6212 67.9886 33.5857 68.3035 34.3878 68.6946C35.1899 69.0857 35.8461 69.5464 36.3565 70.0767C36.867 70.6004 37.2415 71.1903 37.4801 71.8466C37.7254 72.5028 37.8513 73.2187 37.858 73.9943C37.8513 75.3333 37.5166 76.4669 36.8537 77.3949C36.1908 78.3229 35.2429 79.0289 34.0099 79.5128C32.7836 79.9967 31.3087 80.2386 29.5852 80.2386C27.8153 80.2386 26.2708 79.9768 24.9517 79.4531C23.6392 78.9295 22.6184 78.1241 21.8892 77.0369C21.1667 75.9432 20.8021 74.5445 20.7955 72.8409H26.0455C26.0786 73.464 26.2344 73.9877 26.5128 74.4119C26.7912 74.8362 27.1823 75.1577 27.6861 75.3764C28.1965 75.5952 28.803 75.7045 29.5057 75.7045C30.0956 75.7045 30.5895 75.6316 30.9872 75.4858C31.3849 75.34 31.6866 75.1378 31.892 74.8793C32.0975 74.6207 32.2036 74.3258 32.2102 73.9943C32.2036 73.6828 32.1009 73.411 31.902 73.179C31.7098 72.9403 31.3916 72.7282 30.9474 72.5426C30.5033 72.3504 29.9034 72.1714 29.1477 72.0057L27.1193 71.5682C25.3163 71.1771 23.8944 70.5241 22.8537 69.6094C21.8196 68.688 21.3059 67.4318 21.3125 65.8409C21.3059 64.5483 21.6506 63.4181 22.3466 62.4503C23.0492 61.4759 24.0204 60.7169 25.2599 60.1733C26.5062 59.6297 27.9347 59.358 29.5455 59.358C31.1894 59.358 32.6113 59.633 33.8111 60.1832C35.0109 60.7334 35.9356 61.509 36.5852 62.5099C37.2415 63.5043 37.5729 64.6676 37.5795 66H32.2898ZM39.9609 80V59.6364H48.7507C50.2621 59.6364 51.5845 59.9347 52.718 60.5312C53.8516 61.1278 54.7332 61.9664 55.3629 63.0469C55.9927 64.1274 56.3075 65.3902 56.3075 66.8352C56.3075 68.2936 55.9827 69.5563 55.3331 70.6236C54.6901 71.6908 53.7853 72.5128 52.6186 73.0895C51.4586 73.6662 50.103 73.9545 48.5518 73.9545H43.3018V69.6591H47.4382C48.0878 69.6591 48.6413 69.5464 49.0987 69.321C49.5627 69.089 49.9174 68.7609 50.1626 68.3366C50.4145 67.9124 50.5405 67.4119 50.5405 66.8352C50.5405 66.2519 50.4145 65.7547 50.1626 65.3438C49.9174 64.9261 49.5627 64.608 49.0987 64.3892C48.6413 64.1638 48.0878 64.0511 47.4382 64.0511H45.4893V80H39.9609ZM58.3359 80V59.6364H73.0121V64.0909H63.8643V67.5909H72.2564V72.0455H63.8643V75.5455H72.9723V80H58.3359ZM75.7539 80V59.6364H90.43V64.0909H81.2823V67.5909H89.6744V72.0455H81.2823V75.5455H90.3903V80H75.7539ZM101.007 80H93.1719V59.6364H100.928C103.022 59.6364 104.832 60.044 106.357 60.8594C107.888 61.6681 109.068 62.8348 109.896 64.3594C110.732 65.8774 111.149 67.697 111.149 69.8182C111.149 71.9394 110.735 73.7623 109.906 75.2869C109.078 76.8049 107.904 77.9716 106.386 78.7869C104.868 79.5956 103.075 80 101.007 80ZM98.7003 75.3068H100.808C101.816 75.3068 102.674 75.1444 103.384 74.8196C104.099 74.4948 104.643 73.9347 105.014 73.1392C105.392 72.3437 105.581 71.2367 105.581 69.8182C105.581 68.3996 105.389 67.2926 105.004 66.4972C104.626 65.7017 104.07 65.1416 103.334 64.8168C102.605 64.4919 101.71 64.3295 100.649 64.3295H98.7003V75.3068ZM32.2898 96C32.2367 95.3371 31.9882 94.8201 31.544 94.4489C31.1065 94.0777 30.4403 93.892 29.5455 93.892C28.9754 93.892 28.508 93.9616 28.1435 94.1009C27.7855 94.2334 27.5204 94.4157 27.348 94.6477C27.1757 94.8797 27.0862 95.1449 27.0795 95.4432C27.0663 95.6884 27.1094 95.9105 27.2088 96.1094C27.3149 96.3016 27.4806 96.4773 27.706 96.6364C27.9313 96.7888 28.2197 96.928 28.571 97.054C28.9223 97.1799 29.34 97.2926 29.8239 97.392L31.4943 97.75C32.6212 97.9886 33.5857 98.3035 34.3878 98.6946C35.1899 99.0857 35.8461 99.5464 36.3565 100.077C36.867 100.6 37.2415 101.19 37.4801 101.847C37.7254 102.503 37.8513 103.219 37.858 103.994C37.8513 105.333 37.5166 106.467 36.8537 107.395C36.1908 108.323 35.2429 109.029 34.0099 109.513C32.7836 109.997 31.3087 110.239 29.5852 110.239C27.8153 110.239 26.2708 109.977 24.9517 109.453C23.6392 108.929 22.6184 108.124 21.8892 107.037C21.1667 105.943 20.8021 104.545 20.7955 102.841H26.0455C26.0786 103.464 26.2344 103.988 26.5128 104.412C26.7912 104.836 27.1823 105.158 27.6861 105.376C28.1965 105.595 28.803 105.705 29.5057 105.705C30.0956 105.705 30.5895 105.632 30.9872 105.486C31.3849 105.34 31.6866 105.138 31.892 104.879C32.0975 104.621 32.2036 104.326 32.2102 103.994C32.2036 103.683 32.1009 103.411 31.902 103.179C31.7098 102.94 31.3916 102.728 30.9474 102.543C30.5033 102.35 29.9034 102.171 29.1477 102.006L27.1193 101.568C25.3163 101.177 23.8944 100.524 22.8537 99.6094C21.8196 98.688 21.3059 97.4318 21.3125 95.8409C21.3059 94.5483 21.6506 93.4181 22.3466 92.4503C23.0492 91.4759 24.0204 90.7169 25.2599 90.1733C26.5062 89.6297 27.9347 89.358 29.5455 89.358C31.1894 89.358 32.6113 89.633 33.8111 90.1832C35.0109 90.7334 35.9356 91.509 36.5852 92.5099C37.2415 93.5043 37.5729 94.6676 37.5795 96H32.2898ZM39.4041 94.0909V89.6364H57.103V94.0909H50.978V110H45.5291V94.0909H39.4041ZM61.9031 110H55.9371L62.6587 89.6364H70.2156L76.9371 110H70.9712L66.5167 95.2443H66.3576L61.9031 110ZM60.7894 101.966H72.0053V106.102H60.7894V101.966ZM78.8984 110V89.6364H87.6882C89.1996 89.6364 90.522 89.9115 91.6555 90.4616C92.7891 91.0118 93.6707 91.804 94.3004 92.8381C94.9302 93.8722 95.245 95.1117 95.245 96.5568C95.245 98.0152 94.9202 99.2448 94.2706 100.246C93.6276 101.247 92.7228 102.002 91.5561 102.513C90.3961 103.023 89.0405 103.278 87.4893 103.278H82.2393V98.983H86.3757C87.0253 98.983 87.5788 98.9034 88.0362 98.7443C88.5002 98.5786 88.8549 98.3168 89.1001 97.9588C89.352 97.6009 89.478 97.1335 89.478 96.5568C89.478 95.9735 89.352 95.4995 89.1001 95.1349C88.8549 94.7637 88.5002 94.492 88.0362 94.3196C87.5788 94.1406 87.0253 94.0511 86.3757 94.0511H84.4268V110H78.8984ZM90.8303 100.653L95.9212 110H89.9155L84.9439 100.653H90.8303Z" fill="white"/>
<path d="M247.287 107L272.983 56.1193V55.7358H242.812V41.5455H291.392V55.7358L265.568 107H247.287ZM326.381 108.79C320.436 108.768 315.301 107.394 310.976 104.667C306.65 101.94 303.316 98.0085 300.972 92.8736C298.628 87.7386 297.467 81.581 297.488 74.4006C297.51 67.1989 298.682 61.0838 301.004 56.0554C303.348 51.027 306.672 47.2024 310.976 44.5817C315.301 41.9609 320.436 40.6506 326.381 40.6506C332.325 40.6506 337.46 41.9716 341.785 44.6136C346.111 47.2344 349.445 51.0589 351.789 56.0874C354.133 61.1158 355.294 67.2202 355.273 74.4006C355.273 81.6236 354.101 87.8026 351.757 92.9375C349.413 98.0724 346.079 102.004 341.753 104.731C337.449 107.437 332.325 108.79 326.381 108.79ZM326.381 94.3438C329.449 94.3438 331.963 92.7457 333.923 89.5497C335.905 86.3324 336.885 81.2827 336.863 74.4006C336.863 69.9048 336.416 66.2294 335.521 63.3743C334.626 60.5192 333.39 58.4098 331.814 57.0462C330.237 55.6612 328.426 54.9688 326.381 54.9688C323.312 54.9688 320.809 56.5241 318.87 59.6349C316.931 62.7457 315.94 67.6676 315.898 74.4006C315.876 78.9815 316.313 82.7528 317.208 85.7145C318.103 88.6548 319.339 90.8281 320.915 92.2344C322.513 93.6406 324.335 94.3438 326.381 94.3438Z" fill="black"/>
<path d="M371.918 91.6562H368.185C368.116 91.1733 367.977 90.7443 367.767 90.3693C367.557 89.9886 367.287 89.6648 366.957 89.3977C366.628 89.1307 366.247 88.9261 365.815 88.7841C365.389 88.642 364.926 88.571 364.426 88.571C363.523 88.571 362.736 88.7955 362.065 89.2443C361.395 89.6875 360.875 90.3352 360.506 91.1875C360.136 92.0341 359.952 93.0625 359.952 94.2727C359.952 95.517 360.136 96.5625 360.506 97.4091C360.881 98.2557 361.403 98.8949 362.074 99.3267C362.744 99.7585 363.52 99.9744 364.401 99.9744C364.895 99.9744 365.352 99.9091 365.773 99.7784C366.199 99.6477 366.577 99.4574 366.906 99.2074C367.236 98.9517 367.509 98.642 367.724 98.2784C367.946 97.9148 368.099 97.5 368.185 97.0341L371.918 97.0511C371.821 97.8523 371.58 98.625 371.193 99.3693C370.813 100.108 370.298 100.77 369.651 101.355C369.009 101.935 368.241 102.395 367.349 102.736C366.463 103.071 365.46 103.239 364.341 103.239C362.784 103.239 361.392 102.886 360.165 102.182C358.943 101.477 357.977 100.457 357.267 99.1222C356.562 97.7869 356.21 96.1705 356.21 94.2727C356.21 92.3693 356.568 90.75 357.284 89.4148C358 88.0795 358.972 87.0625 360.199 86.3636C361.426 85.6591 362.807 85.3068 364.341 85.3068C365.352 85.3068 366.29 85.4489 367.153 85.733C368.023 86.017 368.793 86.4318 369.463 86.9773C370.134 87.517 370.679 88.179 371.099 88.9631C371.526 89.7472 371.798 90.6449 371.918 91.6562ZM374.564 103V85.5455H381.553C382.837 85.5455 383.908 85.7358 384.766 86.1165C385.624 86.4972 386.268 87.0256 386.7 87.7017C387.132 88.3722 387.348 89.1449 387.348 90.0199C387.348 90.7017 387.212 91.3011 386.939 91.8182C386.666 92.3295 386.291 92.75 385.814 93.0795C385.342 93.4034 384.803 93.6335 384.195 93.7699V93.9403C384.859 93.9687 385.482 94.1562 386.061 94.5028C386.646 94.8494 387.121 95.3352 387.484 95.9602C387.848 96.5795 388.03 97.3182 388.03 98.1761C388.03 99.1023 387.8 99.929 387.339 100.656C386.885 101.378 386.212 101.949 385.32 102.369C384.428 102.79 383.328 103 382.021 103H374.564ZM378.254 99.983H381.263C382.291 99.983 383.041 99.7869 383.513 99.3949C383.984 98.9972 384.22 98.4687 384.22 97.8097C384.22 97.3267 384.104 96.9006 383.871 96.5312C383.638 96.1619 383.305 95.8722 382.874 95.6619C382.447 95.4517 381.939 95.3466 381.348 95.3466H378.254V99.983ZM378.254 92.8494H380.99C381.496 92.8494 381.945 92.7614 382.337 92.5852C382.734 92.4034 383.047 92.1477 383.274 91.8182C383.507 91.4886 383.624 91.0938 383.624 90.6335C383.624 90.0028 383.399 89.4943 382.95 89.108C382.507 88.7216 381.876 88.5284 381.058 88.5284H378.254V92.8494Z" fill="black"/>
<rect y="130" width="400" height="320" fill="url(#paint0_linear_4_2)"/>
<path d="M167.016 287.216H177.624V288.24H167.016V287.216ZM167.064 290.992H177.576V292.016H167.064V290.992ZM169.192 287.6H170.52V291.68H169.192V287.6ZM174.12 287.6H175.448V291.68H174.12V287.6ZM165.8 293.216H178.872V294.288H165.8V293.216ZM167.384 295.552H177.192V298.736H168.712V300.48H167.416V297.776H175.896V296.544H167.384V295.552ZM167.416 300.064H177.624V301.088H167.416V300.064ZM180.999 296.576H181.959C182.833 296.576 183.697 296.555 184.551 296.512C185.415 296.459 186.343 296.347 187.335 296.176L187.447 297.264C186.433 297.445 185.489 297.563 184.615 297.616C183.751 297.659 182.865 297.68 181.959 297.68H180.999V296.576ZM180.967 288.368H186.119V293.392H182.279V297.04H180.999V292.32H184.839V289.456H180.967V288.368ZM191.527 286.768H192.791V301.248H191.527V286.768ZM186.807 291.968H189.159V293.072H186.807V291.968ZM188.599 287.12H189.847V300.48H188.599V287.12ZM205.75 286.768H207.078V301.264H205.75V286.768ZM199.446 287.888C200.16 287.888 200.79 288.096 201.334 288.512C201.888 288.917 202.32 289.499 202.63 290.256C202.95 291.013 203.11 291.904 203.11 292.928C203.11 293.952 202.95 294.843 202.63 295.6C202.32 296.357 201.888 296.944 201.334 297.36C200.79 297.776 200.16 297.984 199.446 297.984C198.731 297.984 198.096 297.776 197.542 297.36C196.987 296.944 196.55 296.357 196.23 295.6C195.92 294.843 195.766 293.952 195.766 292.928C195.766 291.904 195.92 291.013 196.23 290.256C196.55 289.499 196.987 288.917 197.542 288.512C198.096 288.096 198.731 287.888 199.446 287.888ZM199.446 289.072C198.966 289.072 198.544 289.232 198.182 289.552C197.83 289.861 197.552 290.309 197.35 290.896C197.147 291.472 197.046 292.149 197.046 292.928C197.046 293.707 197.147 294.389 197.35 294.976C197.552 295.552 197.83 296 198.182 296.32C198.544 296.64 198.966 296.8 199.446 296.8C199.915 296.8 200.326 296.64 200.678 296.32C201.04 296 201.323 295.552 201.526 294.976C201.728 294.389 201.83 293.707 201.83 292.928C201.83 292.149 201.728 291.472 201.526 290.896C201.323 290.309 201.04 289.861 200.678 289.552C200.326 289.232 199.915 289.072 199.446 289.072ZM213.812 287.888C214.516 287.888 215.14 288.096 215.684 288.512C216.228 288.917 216.65 289.499 216.948 290.256C217.258 291.013 217.412 291.904 217.412 292.928C217.412 293.952 217.258 294.843 216.948 295.6C216.65 296.357 216.228 296.944 215.684 297.36C215.14 297.776 214.516 297.984 213.812 297.984C213.119 297.984 212.495 297.776 211.94 297.36C211.396 296.944 210.97 296.357 210.66 295.6C210.362 294.843 210.212 293.952 210.212 292.928C210.212 291.904 210.362 291.013 210.66 290.256C210.97 289.499 211.396 288.917 211.94 288.512C212.495 288.096 213.119 287.888 213.812 287.888ZM213.812 289.072C213.354 289.072 212.948 289.232 212.596 289.552C212.244 289.861 211.967 290.309 211.764 290.896C211.572 291.472 211.476 292.149 211.476 292.928C211.476 293.707 211.572 294.389 211.764 294.976C211.967 295.552 212.244 296 212.596 296.32C212.948 296.64 213.354 296.8 213.812 296.8C214.282 296.8 214.692 296.64 215.044 296.32C215.396 296 215.668 295.552 215.86 294.976C216.063 294.389 216.164 293.707 216.164 292.928C216.164 292.149 216.063 291.472 215.86 290.896C215.668 290.309 215.396 289.861 215.044 289.552C214.692 289.232 214.282 289.072 213.812 289.072ZM220.548 286.768H221.86V301.264H220.548V286.768ZM216.98 292.288H221.14V293.36H216.98V292.288ZM232.711 288.016H233.799V290.608C233.799 291.408 233.698 292.192 233.495 292.96C233.303 293.728 233.026 294.448 232.663 295.12C232.3 295.792 231.874 296.389 231.383 296.912C230.892 297.435 230.359 297.851 229.783 298.16L228.967 297.088C229.5 296.821 229.991 296.464 230.439 296.016C230.898 295.557 231.298 295.035 231.639 294.448C231.98 293.861 232.242 293.243 232.423 292.592C232.615 291.931 232.711 291.269 232.711 290.608V288.016ZM232.951 288.016H234.023V290.608C234.023 291.248 234.114 291.883 234.295 292.512C234.487 293.141 234.754 293.733 235.095 294.288C235.436 294.843 235.826 295.339 236.263 295.776C236.711 296.213 237.191 296.56 237.703 296.816L236.887 297.872C236.322 297.584 235.799 297.189 235.319 296.688C234.85 296.187 234.434 295.616 234.071 294.976C233.719 294.325 233.442 293.632 233.239 292.896C233.047 292.149 232.951 291.387 232.951 290.608V288.016ZM238.967 286.768H240.295V301.248H238.967V286.768ZM239.991 292.624H242.663V293.76H239.991V292.624ZM247.75 288.352H248.854V289.84C248.854 290.725 248.683 291.547 248.342 292.304C248 293.061 247.52 293.728 246.902 294.304C246.294 294.869 245.584 295.296 244.774 295.584L244.086 294.544C244.811 294.277 245.446 293.909 245.99 293.44C246.544 292.971 246.976 292.427 247.286 291.808C247.595 291.179 247.75 290.523 247.75 289.84V288.352ZM248.006 288.352H249.094V289.84C249.094 290.331 249.179 290.805 249.35 291.264C249.531 291.712 249.787 292.133 250.118 292.528C250.448 292.912 250.832 293.253 251.27 293.552C251.718 293.851 252.208 294.085 252.742 294.256L252.07 295.296C251.27 295.019 250.566 294.613 249.958 294.08C249.35 293.547 248.87 292.917 248.518 292.192C248.176 291.467 248.006 290.683 248.006 289.84V288.352ZM244.438 287.968H252.358V289.056H244.438V287.968ZM254.422 286.784H255.75V297.376H254.422V286.784ZM246.454 299.84H256.198V300.928H246.454V299.84ZM246.454 296.384H247.782V300.32H246.454V296.384Z" fill="white" fill-opacity="0.5"/>
<rect x="15" y="460" width="370" height="75" rx="8" fill="white"/>
<rect x="22" y="468" width="55" height="60" rx="6" fill="#F2F2F2"/>
<path d="M31.294 517V511.909H34.6648V512.797H32.3704V514.01H34.4411V514.897H32.3704V517H31.294ZM40.067 514.455C40.067 515.01 39.9618 515.482 39.7513 515.871C39.5425 516.261 39.2575 516.558 38.8962 516.764C38.5366 516.968 38.1323 517.07 37.6831 517.07C37.2307 517.07 36.8247 516.967 36.4651 516.761C36.1055 516.556 35.8213 516.258 35.6125 515.869C35.4037 515.48 35.2993 515.008 35.2993 514.455C35.2993 513.899 35.4037 513.427 35.6125 513.038C35.8213 512.648 36.1055 512.352 36.4651 512.148C36.8247 511.942 37.2307 511.839 37.6831 511.839C38.1323 511.839 38.5366 511.942 38.8962 512.148C39.2575 512.352 39.5425 512.648 39.7513 513.038C39.9618 513.427 40.067 513.899 40.067 514.455ZM38.9758 514.455C38.9758 514.095 38.9219 513.792 38.8142 513.545C38.7081 513.298 38.5581 513.111 38.3643 512.983C38.1704 512.855 37.9433 512.792 37.6831 512.792C37.423 512.792 37.1959 512.855 37.002 512.983C36.8081 513.111 36.6573 513.298 36.5496 513.545C36.4436 513.792 36.3905 514.095 36.3905 514.455C36.3905 514.814 36.4436 515.117 36.5496 515.364C36.6573 515.611 36.8081 515.799 37.002 515.926C37.1959 516.054 37.423 516.118 37.6831 516.118C37.9433 516.118 38.1704 516.054 38.3643 515.926C38.5581 515.799 38.7081 515.611 38.8142 515.364C38.9219 515.117 38.9758 514.814 38.9758 514.455ZM45.5426 514.455C45.5426 515.01 45.4374 515.482 45.2269 515.871C45.0181 516.261 44.7331 516.558 44.3718 516.764C44.0122 516.968 43.6078 517.07 43.1587 517.07C42.7063 517.07 42.3003 516.967 41.9407 516.761C41.5811 516.556 41.2969 516.258 41.0881 515.869C40.8793 515.48 40.7749 515.008 40.7749 514.455C40.7749 513.899 40.8793 513.427 41.0881 513.038C41.2969 512.648 41.5811 512.352 41.9407 512.148C42.3003 511.942 42.7063 511.839 43.1587 511.839C43.6078 511.839 44.0122 511.942 44.3718 512.148C44.7331 512.352 45.0181 512.648 45.2269 513.038C45.4374 513.427 45.5426 513.899 45.5426 514.455ZM44.4513 514.455C44.4513 514.095 44.3975 513.792 44.2898 513.545C44.1837 513.298 44.0337 513.111 43.8398 512.983C43.646 512.855 43.4189 512.792 43.1587 512.792C42.8986 512.792 42.6715 512.855 42.4776 512.983C42.2837 513.111 42.1329 513.298 42.0252 513.545C41.9192 513.792 41.8661 514.095 41.8661 514.455C41.8661 514.814 41.9192 515.117 42.0252 515.364C42.1329 515.611 42.2837 515.799 42.4776 515.926C42.6715 516.054 42.8986 516.118 43.1587 516.118C43.4189 516.118 43.646 516.054 43.8398 515.926C44.0337 515.799 44.1837 515.611 44.2898 515.364C44.3975 515.117 44.4513 514.814 44.4513 514.455ZM45.9136 512.797V511.909H50.0947V512.797H48.5361V517H47.4722V512.797H45.9136ZM50.7833 517V511.909H52.8216C53.1962 511.909 53.5086 511.965 53.7588 512.076C54.009 512.187 54.1971 512.341 54.3231 512.538C54.449 512.734 54.512 512.959 54.512 513.214C54.512 513.413 54.4722 513.588 54.3927 513.739C54.3131 513.888 54.2037 514.01 54.0645 514.107C53.927 514.201 53.7696 514.268 53.5922 514.308V514.358C53.7861 514.366 53.9676 514.421 54.1366 514.522C54.3073 514.623 54.4457 514.764 54.5518 514.947C54.6578 515.127 54.7108 515.343 54.7108 515.593C54.7108 515.863 54.6437 516.104 54.5095 516.316C54.3769 516.527 54.1805 516.693 53.9204 516.816C53.6602 516.939 53.3395 517 52.9584 517H50.7833ZM51.8596 516.12H52.7371C53.0371 516.12 53.2558 516.063 53.3934 515.949C53.5309 515.833 53.5997 515.678 53.5997 515.486C53.5997 515.345 53.5657 515.221 53.4978 515.113C53.4298 515.006 53.3329 514.921 53.2069 514.86C53.0827 514.798 52.9343 514.768 52.762 514.768H51.8596V516.12ZM51.8596 514.039H52.6576C52.8051 514.039 52.936 514.014 53.0503 513.962C53.1663 513.909 53.2575 513.835 53.3238 513.739C53.3917 513.643 53.4257 513.527 53.4257 513.393C53.4257 513.209 53.3602 513.061 53.2293 512.948C53.1001 512.835 52.9161 512.779 52.6775 512.779H51.8596V514.039ZM56.2887 517H55.1353L56.8928 511.909H58.2798L60.0348 517H58.8814L57.6062 513.072H57.5664L56.2887 517ZM56.2166 514.999H58.9411V515.839H56.2166V514.999ZM60.6475 517V511.909H61.7239V516.113H63.9064V517H60.6475ZM64.6192 517V511.909H65.6956V516.113H67.8781V517H64.6192ZM34.5992 526H32.7945V520.909H34.6141C35.1262 520.909 35.567 521.011 35.9366 521.215C36.3061 521.417 36.5903 521.708 36.7892 522.087C36.9897 522.467 37.09 522.921 37.09 523.45C37.09 523.98 36.9897 524.436 36.7892 524.817C36.5903 525.198 36.3045 525.49 35.9316 525.694C35.5604 525.898 35.1163 526 34.5992 526ZM33.8709 525.078H34.5545C34.8726 525.078 35.1403 525.021 35.3574 524.909C35.5761 524.794 35.7402 524.618 35.8496 524.379C35.9606 524.139 36.0161 523.829 36.0161 523.45C36.0161 523.073 35.9606 522.766 35.8496 522.527C35.7402 522.289 35.577 522.113 35.3599 522C35.1428 521.888 34.8751 521.831 34.557 521.831H33.8709V525.078ZM38.4777 526H37.3243L39.0817 520.909H40.4688L42.2238 526H41.0704L39.7951 522.072H39.7554L38.4777 526ZM38.4056 523.999H41.13V524.839H38.4056V523.999ZM42.0206 521.797V520.909H46.2017V521.797H44.6431V526H43.5791V521.797H42.0206ZM47.1456 526H45.9922L47.7497 520.909H49.1368L50.8917 526H49.7383L48.4631 522.072H48.4233L47.1456 526ZM47.0736 523.999H49.798V524.839H47.0736V523.999ZM53.1246 526V520.909H54.2009V525.113H56.3835V526H53.1246ZM58.1036 526H56.9502L58.7077 520.909H60.0948L61.8497 526H60.6963L59.4211 522.072H59.3813L58.1036 526ZM58.0316 523.999H60.756V524.839H58.0316V523.999ZM62.4625 526V520.909H64.5008C64.8754 520.909 65.1878 520.965 65.438 521.076C65.6882 521.187 65.8763 521.341 66.0023 521.538C66.1282 521.734 66.1912 521.959 66.1912 522.214C66.1912 522.413 66.1514 522.588 66.0719 522.739C65.9923 522.888 65.8829 523.01 65.7437 523.107C65.6062 523.201 65.4488 523.268 65.2714 523.308V523.358C65.4653 523.366 65.6468 523.421 65.8158 523.522C65.9865 523.623 66.1249 523.764 66.231 523.947C66.337 524.127 66.39 524.343 66.39 524.593C66.39 524.863 66.3229 525.104 66.1887 525.316C66.0561 525.527 65.8597 525.693 65.5996 525.816C65.3394 525.939 65.0187 526 64.6376 526H62.4625ZM63.5388 525.12H64.4163C64.7163 525.12 64.935 525.063 65.0726 524.949C65.2101 524.833 65.2789 524.678 65.2789 524.486C65.2789 524.345 65.2449 524.221 65.177 524.113C65.109 524.006 65.0121 523.921 64.8861 523.86C64.7619 523.798 64.6135 523.768 64.4412 523.768H63.5388V525.12ZM63.5388 523.039H64.3368C64.4843 523.039 64.6152 523.014 64.7295 522.962C64.8455 522.909 64.9367 522.835 65.003 522.739C65.0709 522.643 65.1049 522.527 65.1049 522.393C65.1049 522.209 65.0394 522.061 64.9085 521.948C64.7793 521.835 64.5953 521.779 64.3567 521.779H63.5388V523.039Z" fill="black"/>
<path d="M91.179 488H90.2557L92.9261 480.727H93.8352L96.5057 488H95.5824L93.4091 481.878H93.3523L91.179 488ZM91.5199 485.159H95.2415V485.94H91.5199V485.159ZM97.6385 488V480.727H100.181C100.688 480.727 101.106 480.815 101.435 480.99C101.764 481.163 102.009 481.396 102.17 481.69C102.331 481.981 102.411 482.304 102.411 482.659C102.411 482.972 102.356 483.23 102.244 483.433C102.135 483.637 101.991 483.798 101.811 483.916C101.634 484.035 101.441 484.122 101.232 484.179V484.25C101.455 484.264 101.679 484.342 101.903 484.484C102.128 484.626 102.317 484.83 102.468 485.095C102.62 485.36 102.695 485.685 102.695 486.068C102.695 486.433 102.612 486.761 102.447 487.052C102.281 487.343 102.019 487.574 101.662 487.744C101.304 487.915 100.839 488 100.266 488H97.6385ZM98.5192 487.219H100.266C100.842 487.219 101.25 487.107 101.491 486.885C101.735 486.66 101.857 486.388 101.857 486.068C101.857 485.822 101.795 485.595 101.669 485.386C101.544 485.176 101.365 485.008 101.133 484.882C100.901 484.754 100.626 484.69 100.309 484.69H98.5192V487.219ZM98.5192 483.923H100.153C100.418 483.923 100.657 483.871 100.87 483.767C101.085 483.663 101.256 483.516 101.381 483.327C101.509 483.137 101.573 482.915 101.573 482.659C101.573 482.339 101.462 482.068 101.239 481.846C101.017 481.621 100.664 481.509 100.181 481.509H98.5192V483.923ZM109.995 483H109.114C109.062 482.747 108.971 482.524 108.841 482.332C108.713 482.141 108.556 481.98 108.372 481.849C108.19 481.717 107.987 481.617 107.765 481.551C107.542 481.485 107.31 481.452 107.069 481.452C106.628 481.452 106.229 481.563 105.872 481.786C105.517 482.008 105.234 482.336 105.023 482.769C104.815 483.202 104.711 483.734 104.711 484.364C104.711 484.993 104.815 485.525 105.023 485.958C105.234 486.391 105.517 486.719 105.872 486.942C106.229 487.164 106.628 487.276 107.069 487.276C107.31 487.276 107.542 487.242 107.765 487.176C107.987 487.11 108.19 487.012 108.372 486.881C108.556 486.749 108.713 486.587 108.841 486.395C108.971 486.201 109.062 485.978 109.114 485.727H109.995C109.928 486.099 109.808 486.432 109.632 486.725C109.457 487.019 109.239 487.268 108.979 487.474C108.719 487.678 108.426 487.833 108.102 487.94C107.78 488.046 107.435 488.099 107.069 488.099C106.448 488.099 105.897 487.948 105.414 487.645C104.931 487.342 104.551 486.911 104.274 486.352C103.997 485.794 103.858 485.131 103.858 484.364C103.858 483.597 103.997 482.934 104.274 482.375C104.551 481.816 104.931 481.385 105.414 481.082C105.897 480.779 106.448 480.628 107.069 480.628C107.435 480.628 107.78 480.681 108.102 480.788C108.426 480.894 108.719 481.05 108.979 481.256C109.239 481.46 109.457 481.709 109.632 482.002C109.808 482.293 109.928 482.626 109.995 483ZM113.662 488H111.418V480.727H113.762C114.467 480.727 115.071 480.873 115.573 481.164C116.075 481.453 116.459 481.868 116.727 482.411C116.994 482.95 117.128 483.597 117.128 484.349C117.128 485.107 116.993 485.759 116.723 486.306C116.453 486.851 116.06 487.27 115.544 487.563C115.028 487.854 114.401 488 113.662 488ZM112.298 487.219H113.605C114.207 487.219 114.705 487.103 115.1 486.871C115.496 486.639 115.79 486.308 115.985 485.88C116.179 485.451 116.276 484.941 116.276 484.349C116.276 483.762 116.18 483.257 115.988 482.833C115.796 482.407 115.51 482.08 115.129 481.853C114.748 481.623 114.273 481.509 113.705 481.509H112.298V487.219ZM118.605 488V480.727H122.994V481.509H119.486V483.966H122.767V484.747H119.486V487.219H123.051V488H118.605ZM124.582 488V480.727H128.943V481.509H125.463V483.966H128.616V484.747H125.463V488H124.582ZM135.423 483C135.344 482.761 135.241 482.547 135.114 482.357C134.988 482.165 134.838 482.002 134.663 481.867C134.49 481.732 134.293 481.629 134.073 481.558C133.853 481.487 133.612 481.452 133.349 481.452C132.918 481.452 132.526 481.563 132.173 481.786C131.821 482.008 131.54 482.336 131.332 482.769C131.123 483.202 131.019 483.734 131.019 484.364C131.019 484.993 131.125 485.525 131.335 485.958C131.546 486.391 131.831 486.719 132.191 486.942C132.551 487.164 132.956 487.276 133.406 487.276C133.822 487.276 134.189 487.187 134.506 487.009C134.826 486.829 135.075 486.576 135.252 486.249C135.432 485.92 135.522 485.533 135.522 485.088L135.792 485.145H133.604V484.364H136.374V485.145C136.374 485.744 136.246 486.265 135.991 486.707C135.737 487.15 135.387 487.493 134.94 487.737C134.495 487.979 133.983 488.099 133.406 488.099C132.762 488.099 132.196 487.948 131.708 487.645C131.223 487.342 130.844 486.911 130.572 486.352C130.302 485.794 130.167 485.131 130.167 484.364C130.167 483.788 130.244 483.271 130.398 482.812C130.554 482.35 130.774 481.957 131.058 481.633C131.342 481.308 131.679 481.06 132.067 480.887C132.455 480.714 132.882 480.628 133.349 480.628C133.732 480.628 134.09 480.686 134.421 480.802C134.755 480.915 135.052 481.078 135.312 481.288C135.575 481.497 135.794 481.746 135.969 482.038C136.145 482.326 136.265 482.647 136.332 483H135.423ZM146.547 483H145.667C145.615 482.747 145.523 482.524 145.393 482.332C145.265 482.141 145.109 481.98 144.925 481.849C144.742 481.717 144.54 481.617 144.317 481.551C144.095 481.485 143.863 481.452 143.621 481.452C143.181 481.452 142.782 481.563 142.425 481.786C142.069 482.008 141.787 482.336 141.576 482.769C141.367 483.202 141.263 483.734 141.263 484.364C141.263 484.993 141.367 485.525 141.576 485.958C141.787 486.391 142.069 486.719 142.425 486.942C142.782 487.164 143.181 487.276 143.621 487.276C143.863 487.276 144.095 487.242 144.317 487.176C144.54 487.11 144.742 487.012 144.925 486.881C145.109 486.749 145.265 486.587 145.393 486.395C145.523 486.201 145.615 485.978 145.667 485.727H146.547C146.481 486.099 146.36 486.432 146.185 486.725C146.01 487.019 145.792 487.268 145.532 487.474C145.271 487.678 144.979 487.833 144.655 487.94C144.333 488.046 143.988 488.099 143.621 488.099C143.001 488.099 142.449 487.948 141.966 487.645C141.483 487.342 141.104 486.911 140.827 486.352C140.55 485.794 140.411 485.131 140.411 484.364C140.411 483.597 140.55 482.934 140.827 482.375C141.104 481.816 141.483 481.385 141.966 481.082C142.449 480.779 143.001 480.628 143.621 480.628C143.988 480.628 144.333 480.681 144.655 480.788C144.979 480.894 145.271 481.05 145.532 481.256C145.792 481.46 146.01 481.709 146.185 482.002C146.36 482.293 146.481 482.626 146.547 483ZM147.971 488V480.727H148.851V487.219H152.232V488H147.971ZM158.368 480.727H159.249V485.543C159.249 486.04 159.132 486.484 158.897 486.874C158.665 487.263 158.337 487.569 157.914 487.794C157.49 488.017 156.993 488.128 156.422 488.128C155.852 488.128 155.355 488.017 154.931 487.794C154.507 487.569 154.178 487.263 153.944 486.874C153.712 486.484 153.596 486.04 153.596 485.543V480.727H154.476V485.472C154.476 485.827 154.554 486.143 154.711 486.42C154.867 486.694 155.089 486.911 155.378 487.07C155.669 487.226 156.017 487.304 156.422 487.304C156.827 487.304 157.175 487.226 157.466 487.07C157.757 486.911 157.98 486.694 158.134 486.42C158.29 486.143 158.368 485.827 158.368 485.472V480.727ZM161.008 488V480.727H163.55C164.057 480.727 164.475 480.815 164.804 480.99C165.133 481.163 165.378 481.396 165.539 481.69C165.7 481.981 165.78 482.304 165.78 482.659C165.78 482.972 165.725 483.23 165.613 483.433C165.505 483.637 165.36 483.798 165.18 483.916C165.003 484.035 164.81 484.122 164.601 484.179V484.25C164.824 484.264 165.048 484.342 165.273 484.484C165.497 484.626 165.686 484.83 165.837 485.095C165.989 485.36 166.064 485.685 166.064 486.068C166.064 486.433 165.982 486.761 165.816 487.052C165.65 487.343 165.389 487.574 165.031 487.744C164.674 487.915 164.208 488 163.635 488H161.008ZM161.888 487.219H163.635C164.211 487.219 164.619 487.107 164.861 486.885C165.104 486.66 165.226 486.388 165.226 486.068C165.226 485.822 165.164 485.595 165.038 485.386C164.913 485.176 164.734 485.008 164.502 484.882C164.27 484.754 163.995 484.69 163.678 484.69H161.888V487.219ZM161.888 483.923H163.522C163.787 483.923 164.026 483.871 164.239 483.767C164.455 483.663 164.625 483.516 164.751 483.327C164.878 483.137 164.942 482.915 164.942 482.659C164.942 482.339 164.831 482.068 164.608 481.846C164.386 481.621 164.033 481.509 163.55 481.509H161.888V483.923Z" fill="#666666"/>
<path d="M93.124 514.252H107.248V516.606H93.124V514.252ZM93.124 510.71H96.05V515.066H93.124V510.71ZM90.88 507.146H109.338V509.456H90.88V507.146ZM98.602 504.286H101.528V508.026H98.602V504.286ZM98.58 497.158H101.088V497.774C101.088 498.551 100.971 499.292 100.736 499.996C100.501 500.685 100.157 501.331 99.702 501.932C99.262 502.533 98.712 503.076 98.052 503.56C97.392 504.029 96.6367 504.433 95.786 504.77C94.95 505.107 94.0113 505.357 92.97 505.518L91.848 503.23C92.7573 503.113 93.5713 502.922 94.29 502.658C95.0087 502.394 95.632 502.086 96.16 501.734C96.7027 501.367 97.15 500.971 97.502 500.546C97.8687 500.106 98.14 499.651 98.316 499.182C98.492 498.713 98.58 498.243 98.58 497.774V497.158ZM99.064 497.158H101.55V497.774C101.55 498.258 101.638 498.742 101.814 499.226C101.99 499.695 102.254 500.15 102.606 500.59C102.958 501.015 103.398 501.404 103.926 501.756C104.469 502.108 105.099 502.416 105.818 502.68C106.551 502.929 107.373 503.113 108.282 503.23L107.182 505.518C106.141 505.357 105.195 505.115 104.344 504.792C103.493 504.455 102.738 504.051 102.078 503.582C101.418 503.098 100.861 502.563 100.406 501.976C99.966 501.375 99.6287 500.722 99.394 500.018C99.174 499.314 99.064 498.566 99.064 497.774V497.158ZM120.292 510.622C122.551 510.622 124.296 510.893 125.528 511.436C126.76 511.979 127.376 512.763 127.376 513.79C127.376 514.846 126.76 515.638 125.528 516.166C124.296 516.709 122.551 516.98 120.292 516.98C118.048 516.98 116.31 516.709 115.078 516.166C113.846 515.638 113.23 514.853 113.23 513.812C113.23 512.771 113.846 511.979 115.078 511.436C116.31 510.893 118.048 510.622 120.292 510.622ZM120.314 512.734C118.892 512.734 117.85 512.822 117.19 512.998C116.53 513.159 116.2 513.423 116.2 513.79C116.2 514.171 116.53 514.45 117.19 514.626C117.85 514.787 118.892 514.868 120.314 514.868C121.722 514.868 122.749 514.787 123.394 514.626C124.054 514.45 124.384 514.171 124.384 513.79C124.384 513.423 124.054 513.159 123.394 512.998C122.749 512.822 121.722 512.734 120.314 512.734ZM111.998 498.038H128.608V500.238H111.998V498.038ZM120.336 500.766C122.536 500.766 124.223 501.015 125.396 501.514C126.57 502.013 127.156 502.739 127.156 503.692C127.156 504.66 126.57 505.393 125.396 505.892C124.223 506.376 122.536 506.618 120.336 506.618C118.166 506.618 116.486 506.376 115.298 505.892C114.11 505.393 113.516 504.66 113.516 503.692C113.516 502.739 114.11 502.013 115.298 501.514C116.486 501.015 118.166 500.766 120.336 500.766ZM120.336 502.746C119.09 502.746 118.166 502.819 117.564 502.966C116.963 503.113 116.662 503.362 116.662 503.714C116.662 504.037 116.963 504.279 117.564 504.44C118.166 504.587 119.09 504.66 120.336 504.66C121.612 504.66 122.544 504.587 123.13 504.44C123.732 504.279 124.032 504.037 124.032 503.714C124.032 503.362 123.732 503.113 123.13 502.966C122.544 502.819 121.612 502.746 120.336 502.746ZM118.884 496.388H121.788V499.534H118.884V496.388ZM111.118 507.476H129.554V509.742H111.118V507.476ZM132.391 498.17H142.269V508.048H132.391V498.17ZM139.409 500.502H135.273V505.716H139.409V500.502ZM145.371 496.586H148.297V511.062H145.371V496.586ZM134.723 514.186H148.825V516.518H134.723V514.186ZM134.723 509.764H137.649V515.22H134.723V509.764Z" fill="black"/>
<path d="M174.858 509.545C174.815 509.186 174.643 508.906 174.339 508.707C174.036 508.509 173.665 508.409 173.224 508.409C172.902 508.409 172.621 508.461 172.379 508.565C172.14 508.67 171.953 508.813 171.818 508.995C171.686 509.177 171.619 509.384 171.619 509.616C171.619 509.811 171.665 509.978 171.758 510.117C171.853 510.254 171.973 510.369 172.12 510.462C172.267 510.552 172.421 510.626 172.582 510.685C172.743 510.742 172.891 510.788 173.026 510.824L173.764 511.023C173.954 511.072 174.164 511.141 174.396 511.229C174.631 511.316 174.854 511.436 175.067 511.587C175.283 511.737 175.46 511.928 175.6 512.163C175.74 512.397 175.81 512.685 175.81 513.026C175.81 513.419 175.707 513.774 175.501 514.091C175.297 514.408 174.999 514.66 174.606 514.847C174.215 515.034 173.741 515.128 173.182 515.128C172.661 515.128 172.21 515.044 171.829 514.876C171.45 514.708 171.152 514.473 170.934 514.173C170.719 513.872 170.597 513.523 170.568 513.125H171.477C171.501 513.4 171.593 513.627 171.754 513.807C171.918 513.984 172.124 514.117 172.372 514.205C172.623 514.29 172.893 514.332 173.182 514.332C173.518 514.332 173.82 514.278 174.087 514.169C174.355 514.058 174.567 513.904 174.723 513.707C174.879 513.509 174.957 513.277 174.957 513.011C174.957 512.77 174.89 512.573 174.755 512.422C174.62 512.27 174.442 512.147 174.222 512.053C174.002 511.958 173.764 511.875 173.509 511.804L172.614 511.548C172.045 511.385 171.596 511.152 171.264 510.849C170.933 510.546 170.767 510.149 170.767 509.659C170.767 509.252 170.877 508.897 171.097 508.594C171.32 508.288 171.618 508.052 171.992 507.884C172.369 507.713 172.789 507.628 173.253 507.628C173.722 507.628 174.138 507.712 174.503 507.88C174.867 508.046 175.156 508.273 175.369 508.562C175.585 508.851 175.698 509.179 175.71 509.545H174.858ZM179.36 515.114C178.867 515.114 178.435 514.996 178.064 514.762C177.694 514.528 177.406 514.2 177.197 513.778C176.991 513.357 176.888 512.865 176.888 512.301C176.888 511.733 176.991 511.237 177.197 510.813C177.406 510.389 177.694 510.06 178.064 509.826C178.435 509.592 178.867 509.474 179.36 509.474C179.852 509.474 180.283 509.592 180.653 509.826C181.024 510.06 181.313 510.389 181.519 510.813C181.727 511.237 181.831 511.733 181.831 512.301C181.831 512.865 181.727 513.357 181.519 513.778C181.313 514.2 181.024 514.528 180.653 514.762C180.283 514.996 179.852 515.114 179.36 515.114ZM179.36 514.361C179.734 514.361 180.042 514.265 180.283 514.073C180.525 513.881 180.703 513.629 180.819 513.317C180.935 513.004 180.993 512.666 180.993 512.301C180.993 511.937 180.935 511.597 180.819 511.282C180.703 510.967 180.525 510.713 180.283 510.518C180.042 510.324 179.734 510.227 179.36 510.227C178.986 510.227 178.678 510.324 178.437 510.518C178.195 510.713 178.016 510.967 177.9 511.282C177.784 511.597 177.726 511.937 177.726 512.301C177.726 512.666 177.784 513.004 177.9 513.317C178.016 513.629 178.195 513.881 178.437 514.073C178.678 514.265 178.986 514.361 179.36 514.361ZM183.949 511.719V515H183.111V509.545H183.92V510.398H183.991C184.119 510.121 184.313 509.898 184.574 509.73C184.834 509.56 185.17 509.474 185.582 509.474C185.952 509.474 186.275 509.55 186.552 509.702C186.829 509.851 187.044 510.078 187.198 510.384C187.352 510.687 187.429 511.07 187.429 511.534V515H186.591V511.591C186.591 511.162 186.48 510.829 186.257 510.589C186.035 510.348 185.729 510.227 185.341 510.227C185.073 510.227 184.834 510.285 184.624 510.401C184.415 510.517 184.251 510.687 184.13 510.909C184.009 511.132 183.949 511.402 183.949 511.719ZM191.887 515V507.727H192.767V510.966H196.645V507.727H197.526V515H196.645V511.747H192.767V515H191.887ZM201.462 515.114C200.937 515.114 200.483 514.998 200.102 514.766C199.723 514.531 199.431 514.205 199.225 513.786C199.021 513.364 198.92 512.874 198.92 512.315C198.92 511.757 199.021 511.264 199.225 510.838C199.431 510.41 199.717 510.076 200.084 509.837C200.454 509.595 200.885 509.474 201.377 509.474C201.661 509.474 201.942 509.522 202.219 509.616C202.496 509.711 202.748 509.865 202.975 510.078C203.202 510.289 203.383 510.568 203.518 510.916C203.653 511.264 203.721 511.693 203.721 512.202V512.557H199.516V511.832H202.868C202.868 511.525 202.807 511.25 202.684 511.009C202.563 510.767 202.39 510.576 202.165 510.437C201.943 510.297 201.68 510.227 201.377 510.227C201.043 510.227 200.754 510.31 200.51 510.476C200.269 510.639 200.083 510.852 199.953 511.115C199.823 511.378 199.758 511.66 199.758 511.96V512.443C199.758 512.855 199.829 513.204 199.971 513.491C200.115 513.775 200.315 513.991 200.571 514.141C200.827 514.287 201.124 514.361 201.462 514.361C201.682 514.361 201.881 514.33 202.059 514.268C202.239 514.205 202.394 514.11 202.524 513.984C202.654 513.857 202.755 513.698 202.826 513.509L203.635 513.736C203.55 514.01 203.407 514.252 203.206 514.46C203.005 514.666 202.756 514.827 202.46 514.943C202.164 515.057 201.831 515.114 201.462 515.114ZM208.433 512.77V509.545H209.271V515H208.433V514.077H208.376C208.248 514.354 208.05 514.589 207.78 514.783C207.51 514.975 207.169 515.071 206.757 515.071C206.416 515.071 206.113 514.996 205.848 514.847C205.583 514.696 205.374 514.469 205.223 514.165C205.071 513.86 204.996 513.475 204.996 513.011V509.545H205.834V512.955C205.834 513.352 205.945 513.67 206.167 513.906C206.392 514.143 206.679 514.261 207.027 514.261C207.235 514.261 207.447 514.208 207.662 514.102C207.88 513.995 208.063 513.832 208.209 513.612C208.358 513.391 208.433 513.111 208.433 512.77ZM211.644 511.719V515H210.806V509.545H211.616V510.398H211.687C211.815 510.121 212.009 509.898 212.269 509.73C212.53 509.56 212.866 509.474 213.278 509.474C213.647 509.474 213.97 509.55 214.247 509.702C214.524 509.851 214.74 510.078 214.893 510.384C215.047 510.687 215.124 511.07 215.124 511.534V515H214.286V511.591C214.286 511.162 214.175 510.829 213.952 510.589C213.73 510.348 213.424 510.227 213.036 510.227C212.769 510.227 212.53 510.285 212.319 510.401C212.111 510.517 211.946 510.687 211.825 510.909C211.705 511.132 211.644 511.402 211.644 511.719ZM218.857 517.159C218.453 517.159 218.105 517.107 217.813 517.003C217.522 516.901 217.28 516.766 217.085 516.598C216.894 516.432 216.741 516.255 216.627 516.065L217.295 515.597C217.371 515.696 217.467 515.81 217.583 515.938C217.699 516.068 217.857 516.18 218.058 516.275C218.262 516.372 218.528 516.42 218.857 516.42C219.298 516.42 219.661 516.314 219.948 516.101C220.234 515.888 220.377 515.554 220.377 515.099V513.991H220.306C220.245 514.091 220.157 514.214 220.044 514.361C219.932 514.505 219.771 514.634 219.561 514.748C219.352 514.859 219.07 514.915 218.715 514.915C218.275 514.915 217.88 514.811 217.529 514.602C217.181 514.394 216.905 514.091 216.702 513.693C216.501 513.295 216.4 512.812 216.4 512.244C216.4 511.686 216.498 511.199 216.695 510.785C216.891 510.368 217.165 510.046 217.515 509.819C217.865 509.589 218.27 509.474 218.73 509.474C219.085 509.474 219.366 509.534 219.575 509.652C219.785 509.768 219.946 509.901 220.058 510.05C220.171 510.196 220.259 510.317 220.32 510.412H220.406V509.545H221.215V515.156C221.215 515.625 221.109 516.006 220.896 516.3C220.685 516.596 220.401 516.812 220.044 516.95C219.688 517.089 219.293 517.159 218.857 517.159ZM218.829 514.162C219.165 514.162 219.449 514.085 219.681 513.931C219.913 513.777 220.09 513.556 220.21 513.267C220.331 512.978 220.392 512.633 220.392 512.23C220.392 511.837 220.332 511.49 220.214 511.19C220.096 510.889 219.92 510.653 219.688 510.483C219.456 510.312 219.17 510.227 218.829 510.227C218.474 510.227 218.178 510.317 217.941 510.497C217.707 510.677 217.53 510.919 217.412 511.222C217.296 511.525 217.238 511.861 217.238 512.23C217.238 512.609 217.297 512.944 217.416 513.235C217.536 513.524 217.714 513.751 217.948 513.917C218.185 514.08 218.479 514.162 218.829 514.162ZM225.676 507.727H226.727L229.198 513.764H229.284L231.755 507.727H232.806V515H231.982V509.474H231.911L229.639 515H228.843L226.57 509.474H226.499V515H225.676V507.727ZM234.458 515V509.545H235.297V515H234.458ZM234.885 508.636C234.721 508.636 234.58 508.581 234.462 508.469C234.346 508.358 234.288 508.224 234.288 508.068C234.288 507.912 234.346 507.778 234.462 507.667C234.58 507.556 234.721 507.5 234.885 507.5C235.048 507.5 235.188 507.556 235.304 507.667C235.422 507.778 235.481 507.912 235.481 508.068C235.481 508.224 235.422 508.358 235.304 508.469C235.188 508.581 235.048 508.636 234.885 508.636ZM237.67 511.719V515H236.831V509.545H237.641V510.398H237.712C237.84 510.121 238.034 509.898 238.295 509.73C238.555 509.56 238.891 509.474 239.303 509.474C239.672 509.474 239.996 509.55 240.273 509.702C240.55 509.851 240.765 510.078 240.919 510.384C241.073 510.687 241.15 511.07 241.15 511.534V515H240.312V511.591C240.312 511.162 240.2 510.829 239.978 510.589C239.755 510.348 239.45 510.227 239.062 510.227C238.794 510.227 238.555 510.285 238.344 510.401C238.136 510.517 237.971 510.687 237.851 510.909C237.73 511.132 237.67 511.402 237.67 511.719Z" fill="#666666"/>
<path d="M341.061 487H340.23L342.634 480.455H343.452L345.855 487H345.024L343.068 481.49H343.017L341.061 487ZM341.368 484.443H344.717V485.146H341.368V484.443ZM351.041 482.5C350.971 482.285 350.878 482.092 350.763 481.922C350.65 481.749 350.515 481.602 350.358 481.48C350.202 481.359 350.025 481.266 349.827 481.202C349.629 481.138 349.411 481.107 349.175 481.107C348.787 481.107 348.435 481.207 348.117 481.407C347.8 481.607 347.547 481.902 347.36 482.292C347.172 482.682 347.078 483.161 347.078 483.727C347.078 484.294 347.173 484.772 347.363 485.162C347.552 485.552 347.809 485.847 348.133 486.048C348.457 486.248 348.821 486.348 349.226 486.348C349.601 486.348 349.931 486.268 350.217 486.108C350.505 485.946 350.728 485.718 350.888 485.424C351.05 485.128 351.131 484.78 351.131 484.379L351.374 484.43H349.405V483.727H351.898V484.43C351.898 484.969 351.783 485.438 351.553 485.837C351.325 486.235 351.009 486.544 350.607 486.763C350.206 486.981 349.746 487.089 349.226 487.089C348.647 487.089 348.137 486.953 347.698 486.68C347.262 486.408 346.921 486.02 346.676 485.517C346.433 485.014 346.311 484.418 346.311 483.727C346.311 483.21 346.381 482.744 346.519 482.331C346.66 481.915 346.858 481.561 347.114 481.27C347.369 480.978 347.672 480.754 348.021 480.598C348.371 480.443 348.755 480.365 349.175 480.365C349.52 480.365 349.842 480.417 350.14 480.522C350.441 480.624 350.708 480.77 350.942 480.96C351.179 481.147 351.376 481.372 351.534 481.634C351.691 481.894 351.8 482.183 351.86 482.5H351.041ZM353.256 487V480.455H357.206V481.158H354.048V483.369H357.001V484.072H354.048V486.297H357.257V487H353.256Z" fill="#666666"/>
<path d="M348.258 499V515H344.875V502.211H344.781L341.117 504.508V501.508L345.078 499H348.258ZM358.334 515.352C356.99 515.346 355.834 515.016 354.865 514.359C353.902 513.703 353.16 512.753 352.639 511.508C352.123 510.263 351.868 508.766 351.873 507.016C351.873 505.271 352.131 503.784 352.646 502.555C353.167 501.326 353.91 500.391 354.873 499.75C355.842 499.104 356.995 498.781 358.334 498.781C359.673 498.781 360.824 499.104 361.787 499.75C362.756 500.396 363.501 501.333 364.021 502.562C364.542 503.786 364.8 505.271 364.795 507.016C364.795 508.771 364.535 510.271 364.014 511.516C363.498 512.76 362.758 513.711 361.795 514.367C360.831 515.023 359.678 515.352 358.334 515.352ZM358.334 512.547C359.251 512.547 359.982 512.086 360.529 511.164C361.076 510.242 361.347 508.859 361.342 507.016C361.342 505.802 361.217 504.792 360.967 503.984C360.722 503.177 360.373 502.57 359.92 502.164C359.472 501.758 358.943 501.555 358.334 501.555C357.423 501.555 356.693 502.01 356.146 502.922C355.6 503.833 355.324 505.198 355.318 507.016C355.318 508.245 355.441 509.271 355.686 510.094C355.936 510.911 356.287 511.526 356.74 511.937C357.193 512.344 357.725 512.547 358.334 512.547Z" fill="black"/>
<rect y="550" width="400" height="150" fill="#29ED73"/>
<path d="M15 573.77H26V562.77H15V573.77ZM29.2412 565H31.3271L33.5303 570.375H33.624L35.8271 565H37.9131V573H36.2725V567.793H36.2061L34.1357 572.961H33.0186L30.9482 567.773H30.8818V573H29.2412V565ZM38.8379 565H40.7324L42.5566 568.445H42.6348L44.459 565H46.3535L43.4355 570.172V573H41.7559V570.172L38.8379 565ZM54.1631 567.301C54.1318 566.986 53.9977 566.741 53.7607 566.566C53.5238 566.392 53.2021 566.305 52.7959 566.305C52.5199 566.305 52.2868 566.344 52.0967 566.422C51.9066 566.497 51.7607 566.603 51.6592 566.738C51.5602 566.874 51.5107 567.027 51.5107 567.199C51.5055 567.342 51.5355 567.467 51.6006 567.574C51.6683 567.681 51.7607 567.773 51.8779 567.852C51.9951 567.927 52.1305 567.993 52.2842 568.051C52.4378 568.105 52.6019 568.152 52.7764 568.191L53.4951 568.363C53.8441 568.441 54.1644 568.546 54.4561 568.676C54.7477 568.806 55.0003 568.966 55.2139 569.156C55.4274 569.346 55.5928 569.57 55.71 569.828C55.8298 570.086 55.891 570.382 55.8936 570.715C55.891 571.204 55.766 571.629 55.5186 571.988C55.2738 572.345 54.9196 572.622 54.4561 572.82C53.9951 573.016 53.4391 573.113 52.7881 573.113C52.1423 573.113 51.5798 573.014 51.1006 572.816C50.624 572.618 50.2516 572.326 49.9834 571.937C49.7178 571.547 49.5785 571.064 49.5654 570.488H51.2021C51.2204 570.757 51.2972 570.98 51.4326 571.16C51.5706 571.337 51.7542 571.471 51.9834 571.562C52.2152 571.651 52.4769 571.695 52.7686 571.695C53.055 571.695 53.3037 571.654 53.5146 571.57C53.7282 571.487 53.8936 571.371 54.0107 571.223C54.1279 571.074 54.1865 570.904 54.1865 570.711C54.1865 570.531 54.1331 570.38 54.0264 570.258C53.9222 570.135 53.7686 570.031 53.5654 569.945C53.3649 569.859 53.1188 569.781 52.8271 569.711L51.9561 569.492C51.2816 569.328 50.749 569.072 50.3584 568.723C49.9678 568.374 49.7738 567.904 49.7764 567.312C49.7738 566.828 49.9027 566.405 50.1631 566.043C50.4261 565.681 50.7868 565.398 51.2451 565.195C51.7035 564.992 52.2243 564.891 52.8076 564.891C53.4014 564.891 53.9196 564.992 54.3623 565.195C54.8076 565.398 55.154 565.681 55.4014 566.043C55.6488 566.405 55.7764 566.824 55.7842 567.301H54.1631ZM56.7266 566.395V565H63.2969V566.395H60.8477V573H59.1758V566.395H56.7266ZM64.7803 573H62.9678L65.7295 565H67.9092L70.667 573H68.8545L66.8506 566.828H66.7881L64.7803 573ZM64.667 569.855H68.9482V571.176H64.667V569.855ZM70.3477 566.395V565H76.918V566.395H74.4688V573H72.7969V566.395H70.3477ZM82.3398 567.301C82.3086 566.986 82.1745 566.741 81.9375 566.566C81.7005 566.392 81.3789 566.305 80.9727 566.305C80.6966 566.305 80.4635 566.344 80.2734 566.422C80.0833 566.497 79.9375 566.603 79.8359 566.738C79.737 566.874 79.6875 567.027 79.6875 567.199C79.6823 567.342 79.7122 567.467 79.7773 567.574C79.8451 567.681 79.9375 567.773 80.0547 567.852C80.1719 567.927 80.3073 567.993 80.4609 568.051C80.6146 568.105 80.7786 568.152 80.9531 568.191L81.6719 568.363C82.0208 568.441 82.3411 568.546 82.6328 568.676C82.9245 568.806 83.1771 568.966 83.3906 569.156C83.6042 569.346 83.7695 569.57 83.8867 569.828C84.0065 570.086 84.0677 570.382 84.0703 570.715C84.0677 571.204 83.9427 571.629 83.6953 571.988C83.4505 572.345 83.0964 572.622 82.6328 572.82C82.1719 573.016 81.6159 573.113 80.9648 573.113C80.319 573.113 79.7565 573.014 79.2773 572.816C78.8008 572.618 78.4284 572.326 78.1602 571.937C77.8945 571.547 77.7552 571.064 77.7422 570.488H79.3789C79.3971 570.757 79.474 570.98 79.6094 571.16C79.7474 571.337 79.931 571.471 80.1602 571.562C80.3919 571.651 80.6536 571.695 80.9453 571.695C81.2318 571.695 81.4805 571.654 81.6914 571.57C81.9049 571.487 82.0703 571.371 82.1875 571.223C82.3047 571.074 82.3633 570.904 82.3633 570.711C82.3633 570.531 82.3099 570.38 82.2031 570.258C82.099 570.135 81.9453 570.031 81.7422 569.945C81.5417 569.859 81.2956 569.781 81.0039 569.711L80.1328 569.492C79.4583 569.328 78.9258 569.072 78.5352 568.723C78.1445 568.374 77.9505 567.904 77.9531 567.312C77.9505 566.828 78.0794 566.405 78.3398 566.043C78.6029 565.681 78.9635 565.398 79.4219 565.195C79.8802 564.992 80.401 564.891 80.9844 564.891C81.5781 564.891 82.0964 564.992 82.5391 565.195C82.9844 565.398 83.3307 565.681 83.5781 566.043C83.8255 566.405 83.9531 566.824 83.9609 567.301H82.3398Z" fill="black"/>
<path d="M18.3097 584.727V592H17.429V585.651H17.3864L15.6108 586.83V585.935L17.429 584.727H18.3097ZM22.674 592.099C22.2573 592.099 21.8821 592.017 21.5483 591.851C21.2145 591.685 20.947 591.458 20.7457 591.169C20.5445 590.88 20.4344 590.551 20.4155 590.182H21.2678C21.3009 590.511 21.45 590.783 21.7152 590.999C21.9827 591.212 22.3023 591.318 22.674 591.318C22.9723 591.318 23.2375 591.248 23.4695 591.109C23.7038 590.969 23.8873 590.777 24.0199 590.533C24.1548 590.287 24.2223 590.009 24.2223 589.699C24.2223 589.382 24.1525 589.099 24.0128 588.85C23.8755 588.599 23.6861 588.402 23.4446 588.257C23.2031 588.113 22.9273 588.039 22.6172 588.037C22.3946 588.035 22.1662 588.069 21.9318 588.14C21.6974 588.209 21.5045 588.297 21.353 588.406L20.5291 588.307L20.9695 584.727H24.7479V585.509H21.7081L21.4524 587.653H21.495C21.6442 587.535 21.8312 587.437 22.0561 587.359C22.281 587.281 22.5154 587.241 22.7592 587.241C23.2043 587.241 23.6009 587.348 23.9489 587.561C24.2992 587.772 24.5739 588.061 24.7727 588.428C24.974 588.795 25.0746 589.214 25.0746 589.685C25.0746 590.149 24.9704 590.563 24.7621 590.928C24.5561 591.29 24.272 591.576 23.9098 591.787C23.5476 591.995 23.1357 592.099 22.674 592.099ZM28.8574 592.099C28.3224 592.099 27.8667 591.954 27.4902 591.663C27.1138 591.369 26.8262 590.944 26.6273 590.388C26.4284 589.829 26.329 589.154 26.329 588.364C26.329 587.578 26.4284 586.906 26.6273 586.35C26.8285 585.791 27.1174 585.365 27.4938 585.072C27.8726 584.776 28.3271 584.628 28.8574 584.628C29.3877 584.628 29.8411 584.776 30.2175 585.072C30.5963 585.365 30.8851 585.791 31.084 586.35C31.2852 586.906 31.3858 587.578 31.3858 588.364C31.3858 589.154 31.2864 589.829 31.0875 590.388C30.8887 590.944 30.601 591.369 30.2246 591.663C29.8482 591.954 29.3925 592.099 28.8574 592.099ZM28.8574 591.318C29.3877 591.318 29.7997 591.062 30.0932 590.551C30.3868 590.04 30.5336 589.311 30.5336 588.364C30.5336 587.734 30.4661 587.198 30.3311 586.755C30.1986 586.312 30.0068 585.975 29.7559 585.743C29.5073 585.511 29.2078 585.395 28.8574 585.395C28.3319 585.395 27.9211 585.654 27.6252 586.173C27.3292 586.689 27.1813 587.419 27.1813 588.364C27.1813 588.993 27.2476 589.528 27.3801 589.969C27.5127 590.409 27.7033 590.744 27.9519 590.974C28.2028 591.203 28.5047 591.318 28.8574 591.318ZM34.9654 592.114C34.454 592.114 34.0137 591.993 33.6444 591.751C33.275 591.51 32.9909 591.177 32.7921 590.754C32.5932 590.33 32.4938 589.846 32.4938 589.301C32.4938 588.747 32.5956 588.258 32.7992 587.835C33.0051 587.408 33.2916 587.076 33.6586 586.837C34.0279 586.595 34.4587 586.474 34.9512 586.474C35.3347 586.474 35.6803 586.545 35.9881 586.688C36.2959 586.83 36.548 587.028 36.7445 587.284C36.941 587.54 37.0629 587.838 37.1103 588.179H36.2722C36.2083 587.93 36.0662 587.71 35.8461 587.518C35.6283 587.324 35.3347 587.227 34.9654 587.227C34.6387 587.227 34.3522 587.312 34.106 587.483C33.8622 587.651 33.6716 587.889 33.5343 588.197C33.3993 588.502 33.3319 588.861 33.3319 589.273C33.3319 589.694 33.3981 590.061 33.5307 590.374C33.6657 590.686 33.8551 590.929 34.0989 591.102C34.3451 591.274 34.6339 591.361 34.9654 591.361C35.1832 591.361 35.3809 591.323 35.5584 591.247C35.736 591.171 35.8863 591.062 36.0094 590.92C36.1325 590.778 36.2201 590.608 36.2722 590.409H37.1103C37.0629 590.731 36.9457 591.021 36.7587 591.279C36.574 591.535 36.329 591.738 36.0236 591.89C35.7206 592.039 35.3678 592.114 34.9654 592.114ZM38.3354 592V586.545H39.1451V587.398H39.2161C39.3297 587.107 39.5132 586.88 39.7665 586.719C40.0198 586.556 40.324 586.474 40.6792 586.474C41.039 586.474 41.3385 586.556 41.5776 586.719C41.8191 586.88 42.0073 587.107 42.1422 587.398H42.199C42.3387 587.116 42.5482 586.892 42.8276 586.727C43.1069 586.558 43.4419 586.474 43.8326 586.474C44.3203 586.474 44.7192 586.627 45.0293 586.933C45.3394 587.236 45.4945 587.708 45.4945 588.349V592H44.6564V588.349C44.6564 587.947 44.5463 587.659 44.3262 587.487C44.106 587.314 43.8468 587.227 43.5485 587.227C43.165 587.227 42.8678 587.343 42.6571 587.575C42.4464 587.805 42.3411 588.096 42.3411 588.449V592H41.4888V588.264C41.4888 587.954 41.3882 587.704 41.187 587.515C40.9857 587.323 40.7265 587.227 40.4093 587.227C40.1915 587.227 39.9879 587.285 39.7985 587.401C39.6114 587.517 39.4599 587.678 39.3439 587.884C39.2303 588.088 39.1735 588.323 39.1735 588.591V592H38.3354ZM50.4501 589.457C50.2749 589.457 50.1246 589.395 49.9991 589.269C49.8736 589.144 49.8109 588.993 49.8109 588.818C49.8109 588.643 49.8736 588.493 49.9991 588.367C50.1246 588.242 50.2749 588.179 50.4501 588.179C50.6253 588.179 50.7756 588.242 50.9011 588.367C51.0266 588.493 51.0893 588.643 51.0893 588.818C51.0893 588.934 51.0597 589.041 51.0005 589.138C50.9437 589.235 50.8668 589.313 50.7697 589.372C50.675 589.429 50.5685 589.457 50.4501 589.457ZM55.2211 590.509V589.784L58.4171 584.727H58.9426V585.849H58.5875L56.1728 589.67V589.727H60.4767V590.509H55.2211ZM58.6444 592V590.288V589.951V584.727H59.4824V592H58.6444ZM64.0803 592.099C63.6636 592.099 63.2884 592.017 62.9545 591.851C62.6207 591.685 62.3532 591.458 62.152 591.169C61.9508 590.88 61.8407 590.551 61.8217 590.182H62.674C62.7071 590.511 62.8563 590.783 63.1214 590.999C63.389 591.212 63.7086 591.318 64.0803 591.318C64.3786 591.318 64.6437 591.248 64.8757 591.109C65.1101 590.969 65.2936 590.777 65.4261 590.533C65.5611 590.287 65.6286 590.009 65.6286 589.699C65.6286 589.382 65.5587 589.099 65.419 588.85C65.2817 588.599 65.0923 588.402 64.8509 588.257C64.6094 588.113 64.3336 588.039 64.0234 588.037C63.8009 588.035 63.5724 588.069 63.3381 588.14C63.1037 588.209 62.9107 588.297 62.7592 588.406L61.9354 588.307L62.3757 584.727H66.1541V585.509H63.1143L62.8587 587.653H62.9013C63.0504 587.535 63.2375 587.437 63.4624 587.359C63.6873 587.281 63.9216 587.241 64.1655 587.241C64.6106 587.241 65.0071 587.348 65.3551 587.561C65.7055 587.772 65.9801 588.061 66.179 588.428C66.3802 588.795 66.4808 589.214 66.4808 589.685C66.4808 590.149 66.3767 590.563 66.1683 590.928C65.9624 591.29 65.6783 591.576 65.3161 591.787C64.9538 591.995 64.5419 592.099 64.0803 592.099ZM68.687 590.011L68.6728 588.974H68.8432L71.2296 586.545H72.2665L69.7239 589.116H69.6529L68.687 590.011ZM67.9057 592V584.727H68.7438V592H67.9057ZM71.3716 592L69.2409 589.301L69.8375 588.719L72.437 592H71.3716ZM75.3223 594.159C74.9174 594.159 74.5694 594.107 74.2782 594.003C73.987 593.901 73.7444 593.766 73.5502 593.598C73.3585 593.432 73.2058 593.255 73.0922 593.065L73.7598 592.597C73.8355 592.696 73.9314 592.81 74.0474 592.938C74.1634 593.068 74.322 593.18 74.5233 593.275C74.7269 593.372 74.9932 593.42 75.3223 593.42C75.7626 593.42 76.126 593.314 76.4125 593.101C76.6989 592.888 76.8422 592.554 76.8422 592.099V590.991H76.7711C76.7096 591.091 76.622 591.214 76.5083 591.361C76.3971 591.505 76.2361 591.634 76.0254 591.748C75.8171 591.859 75.5353 591.915 75.1802 591.915C74.7399 591.915 74.3445 591.811 73.9941 591.602C73.6461 591.394 73.3703 591.091 73.1667 590.693C72.9655 590.295 72.8649 589.812 72.8649 589.244C72.8649 588.686 72.9631 588.199 73.1596 587.785C73.3561 587.368 73.6296 587.046 73.9799 586.819C74.3303 586.589 74.7351 586.474 75.1944 586.474C75.5495 586.474 75.8313 586.534 76.0396 586.652C76.2503 586.768 76.4113 586.901 76.5225 587.05C76.6362 587.196 76.7238 587.317 76.7853 587.412H76.8706V586.545H77.6802V592.156C77.6802 592.625 77.5737 593.006 77.3606 593.3C77.1499 593.596 76.8658 593.812 76.5083 593.95C76.1532 594.089 75.7579 594.159 75.3223 594.159ZM75.2939 591.162C75.63 591.162 75.9141 591.085 76.1461 590.931C76.3781 590.777 76.5545 590.556 76.6752 590.267C76.796 589.978 76.8564 589.633 76.8564 589.23C76.8564 588.837 76.7972 588.49 76.6788 588.19C76.5604 587.889 76.3852 587.653 76.1532 587.483C75.9212 587.312 75.6348 587.227 75.2939 587.227C74.9387 587.227 74.6428 587.317 74.4061 587.497C74.1717 587.677 73.9953 587.919 73.877 588.222C73.7609 588.525 73.7029 588.861 73.7029 589.23C73.7029 589.609 73.7621 589.944 73.8805 590.235C74.0012 590.524 74.1788 590.751 74.4132 590.917C74.6499 591.08 74.9435 591.162 75.2939 591.162Z" fill="black"/>
<rect x="15" y="660" width="70" height="28" rx="4" fill="black"/>
<path d="M44.7396 672V667.636H47.6288V668.397H45.6622V669.437H47.4371V670.197H45.6622V672H44.7396ZM49.7963 672H48.2494V667.636H49.809C50.248 667.636 50.6258 667.724 50.9426 667.898C51.2593 668.072 51.5029 668.321 51.6734 668.646C51.8453 668.972 51.9312 669.361 51.9312 669.814C51.9312 670.268 51.8453 670.659 51.6734 670.986C51.5029 671.312 51.2579 671.563 50.9383 671.738C50.6201 671.913 50.2394 672 49.7963 672ZM49.172 671.21H49.7579C50.0306 671.21 50.26 671.161 50.4461 671.065C50.6336 670.967 50.7742 670.815 50.868 670.611C50.9632 670.405 51.0107 670.139 51.0107 669.814C51.0107 669.491 50.9632 669.228 50.868 669.023C50.7742 668.819 50.6343 668.668 50.4482 668.572C50.2622 668.475 50.0328 668.427 49.76 668.427H49.172V671.21ZM52.6146 672V667.636H53.5372V671.239H55.4079V672H52.6146ZM19.0023 680V675.636H21.8915V676.397H19.9249V677.437H21.6998V678.197H19.9249V680H19.0023ZM26.522 677.818C26.522 678.294 26.4318 678.699 26.2514 679.033C26.0724 679.366 25.8281 679.621 25.5185 679.798C25.2102 679.972 24.8636 680.06 24.4787 680.06C24.0909 680.06 23.7429 679.972 23.4347 679.795C23.1264 679.619 22.8828 679.364 22.7038 679.031C22.5249 678.697 22.4354 678.293 22.4354 677.818C22.4354 677.342 22.5249 676.938 22.7038 676.604C22.8828 676.27 23.1264 676.016 23.4347 675.841C23.7429 675.665 24.0909 675.577 24.4787 675.577C24.8636 675.577 25.2102 675.665 25.5185 675.841C25.8281 676.016 26.0724 676.27 26.2514 676.604C26.4318 676.938 26.522 677.342 26.522 677.818ZM25.5866 677.818C25.5866 677.51 25.5405 677.25 25.4482 677.038C25.3572 676.827 25.2287 676.666 25.0625 676.557C24.8963 676.447 24.7017 676.393 24.4787 676.393C24.2557 676.393 24.0611 676.447 23.8949 676.557C23.7287 676.666 23.5994 676.827 23.5071 677.038C23.4162 677.25 23.3707 677.51 23.3707 677.818C23.3707 678.126 23.4162 678.386 23.5071 678.598C23.5994 678.81 23.7287 678.97 23.8949 679.08C24.0611 679.189 24.2557 679.244 24.4787 679.244C24.7017 679.244 24.8963 679.189 25.0625 679.08C25.2287 678.97 25.3572 678.81 25.4482 678.598C25.5405 678.386 25.5866 678.126 25.5866 677.818ZM31.2154 677.818C31.2154 678.294 31.1252 678.699 30.9448 679.033C30.7658 679.366 30.5215 679.621 30.2118 679.798C29.9036 679.972 29.557 680.06 29.1721 680.06C28.7843 680.06 28.4363 679.972 28.128 679.795C27.8198 679.619 27.5762 679.364 27.3972 679.031C27.2182 678.697 27.1287 678.293 27.1287 677.818C27.1287 677.342 27.2182 676.938 27.3972 676.604C27.5762 676.27 27.8198 676.016 28.128 675.841C28.4363 675.665 28.7843 675.577 29.1721 675.577C29.557 675.577 29.9036 675.665 30.2118 675.841C30.5215 676.016 30.7658 676.27 30.9448 676.604C31.1252 676.938 31.2154 677.342 31.2154 677.818ZM30.28 677.818C30.28 677.51 30.2338 677.25 30.1415 677.038C30.0506 676.827 29.9221 676.666 29.7559 676.557C29.5897 676.447 29.3951 676.393 29.1721 676.393C28.949 676.393 28.7544 676.447 28.5882 676.557C28.4221 676.666 28.2928 676.827 28.2005 677.038C28.1096 677.25 28.0641 677.51 28.0641 677.818C28.0641 678.126 28.1096 678.386 28.2005 678.598C28.2928 678.81 28.4221 678.97 28.5882 679.08C28.7544 679.189 28.949 679.244 29.1721 679.244C29.3951 679.244 29.5897 679.189 29.7559 679.08C29.9221 678.97 30.0506 678.81 30.1415 678.598C30.2338 678.386 30.28 678.126 30.28 677.818ZM31.5334 676.397V675.636H35.1172V676.397H33.7812V680H32.8693V676.397H31.5334ZM35.7074 680V675.636H37.4545C37.7756 675.636 38.0433 675.684 38.2578 675.779C38.4723 675.874 38.6335 676.006 38.7415 676.175C38.8494 676.343 38.9034 676.536 38.9034 676.755C38.9034 676.925 38.8693 677.075 38.8011 677.205C38.733 677.332 38.6392 677.437 38.5199 677.52C38.402 677.601 38.267 677.658 38.1151 677.692V677.735C38.2813 677.742 38.4368 677.789 38.5817 677.876C38.728 677.962 38.8466 678.084 38.9375 678.24C39.0284 678.395 39.0739 678.58 39.0739 678.794C39.0739 679.026 39.0163 679.232 38.9013 679.414C38.7876 679.594 38.6193 679.737 38.3963 679.842C38.1733 679.947 37.8984 680 37.5717 680H35.7074ZM36.63 679.246H37.3821C37.6392 679.246 37.8267 679.197 37.9446 679.099C38.0625 678.999 38.1214 678.867 38.1214 678.702C38.1214 678.582 38.0923 678.475 38.0341 678.383C37.9759 678.29 37.8928 678.218 37.7848 678.165C37.6783 678.113 37.5511 678.087 37.4034 678.087H36.63V679.246ZM36.63 677.462H37.3139C37.4403 677.462 37.5526 677.44 37.6506 677.396C37.75 677.351 37.8281 677.287 37.8849 677.205C37.9432 677.122 37.9723 677.023 37.9723 676.908C37.9723 676.751 37.9162 676.624 37.804 676.527C37.6932 676.43 37.5355 676.382 37.331 676.382H36.63V677.462ZM40.4263 680H39.4377L40.9441 675.636H42.133L43.6373 680H42.6486L41.5556 676.634H41.5215L40.4263 680ZM40.3645 678.285H42.6998V679.005H40.3645V678.285ZM44.1625 680V675.636H45.085V679.239H46.9558V680H44.1625ZM47.5668 680V675.636H48.4893V679.239H50.3601V680H47.5668ZM53.9066 680H52.3597V675.636H53.9194C54.3583 675.636 54.7362 675.724 55.0529 675.898C55.3697 676.072 55.6133 676.321 55.7837 676.646C55.9556 676.972 56.0415 677.361 56.0415 677.814C56.0415 678.268 55.9556 678.659 55.7837 678.986C55.6133 679.312 55.3683 679.563 55.0487 679.738C54.7305 679.913 54.3498 680 53.9066 680ZM53.2823 679.21H53.8683C54.141 679.21 54.3704 679.161 54.5565 679.065C54.744 678.967 54.8846 678.815 54.9783 678.611C55.0735 678.405 55.1211 678.139 55.1211 677.814C55.1211 677.491 55.0735 677.228 54.9783 677.023C54.8846 676.819 54.7447 676.668 54.5586 676.572C54.3725 676.475 54.1431 676.427 53.8704 676.427H53.2823V679.21ZM57.231 680H56.2424L57.7488 675.636H58.9377L60.4419 680H59.4533L58.3603 676.634H58.3262L57.231 680ZM57.1692 678.285H59.5044V679.005H57.1692V678.285ZM60.2678 676.397V675.636H63.8516V676.397H62.5156V680H61.6037V676.397H60.2678ZM64.6607 680H63.6721L65.1784 675.636H66.3674L67.8716 680H66.883L65.79 676.634H65.7559L64.6607 680ZM64.5989 678.285H66.9341V679.005H64.5989V678.285ZM69.7855 680V675.636H70.7081V679.239H72.5788V680H69.7855ZM74.0533 680H73.0646L74.571 675.636H75.7599L77.2642 680H76.2756L75.1825 676.634H75.1484L74.0533 680ZM73.9915 678.285H76.3267V679.005H73.9915V678.285ZM77.7894 680V675.636H79.5366C79.8576 675.636 80.1254 675.684 80.3398 675.779C80.5543 675.874 80.7156 676.006 80.8235 676.175C80.9315 676.343 80.9854 676.536 80.9854 676.755C80.9854 676.925 80.9513 677.075 80.8832 677.205C80.815 677.332 80.7212 677.437 80.6019 677.52C80.484 677.601 80.3491 677.658 80.1971 677.692V677.735C80.3633 677.742 80.5188 677.789 80.6637 677.876C80.81 677.962 80.9286 678.084 81.0195 678.24C81.1104 678.395 81.1559 678.58 81.1559 678.794C81.1559 679.026 81.0984 679.232 80.9833 679.414C80.8697 679.594 80.7013 679.737 80.4783 679.842C80.2553 679.947 79.9805 680 79.6538 680H77.7894ZM78.712 679.246H79.4641C79.7212 679.246 79.9087 679.197 80.0266 679.099C80.1445 678.999 80.2035 678.867 80.2035 678.702C80.2035 678.582 80.1744 678.475 80.1161 678.383C80.0579 678.29 79.9748 678.218 79.8668 678.165C79.7603 678.113 79.6332 678.087 79.4854 678.087H78.712V679.246ZM78.712 677.462H79.396C79.5224 677.462 79.6346 677.44 79.7326 677.396C79.832 677.351 79.9102 677.287 79.967 677.205C80.0252 677.122 80.0543 677.023 80.0543 676.908C80.0543 676.751 79.9982 676.624 79.886 676.527C79.7752 676.43 79.6175 676.382 79.413 676.382H78.712V677.462Z" fill="#29ED73"/>
<path d="M100 607.12H116V591.12H100V607.12Z" fill="black"/>
<path d="M137.594 610.219C136.302 610.219 135.148 610.018 134.133 609.617C133.122 609.216 132.326 608.672 131.742 607.984C131.164 607.297 130.875 606.521 130.875 605.656C130.875 604.995 131.039 604.391 131.367 603.844C131.701 603.297 132.148 602.844 132.711 602.484C133.273 602.12 133.901 601.885 134.594 601.781V601.656C133.682 601.5 132.932 601.096 132.344 600.445C131.76 599.789 131.469 599.016 131.469 598.125C131.469 597.286 131.734 596.542 132.266 595.891C132.797 595.234 133.523 594.719 134.445 594.344C135.367 593.969 136.417 593.781 137.594 593.781C138.771 593.781 139.82 593.971 140.742 594.352C141.664 594.727 142.391 595.242 142.922 595.898C143.453 596.549 143.719 597.292 143.719 598.125C143.719 599.021 143.422 599.794 142.828 600.445C142.234 601.096 141.49 601.5 140.594 601.656V601.781C141.281 601.885 141.906 602.12 142.469 602.484C143.031 602.844 143.479 603.297 143.813 603.844C144.146 604.391 144.313 604.995 144.313 605.656C144.313 606.521 144.021 607.297 143.438 607.984C142.859 608.672 142.063 609.216 141.047 609.617C140.036 610.018 138.885 610.219 137.594 610.219ZM137.594 607.219C138.005 607.219 138.37 607.135 138.688 606.969C139.005 606.802 139.255 606.573 139.438 606.281C139.625 605.984 139.719 605.651 139.719 605.281C139.719 604.911 139.625 604.583 139.438 604.297C139.255 604.01 139.005 603.786 138.688 603.625C138.37 603.458 138.005 603.375 137.594 603.375C137.188 603.375 136.823 603.458 136.5 603.625C136.182 603.786 135.93 604.01 135.742 604.297C135.56 604.583 135.469 604.911 135.469 605.281C135.469 605.651 135.56 605.982 135.742 606.273C135.93 606.565 136.182 606.797 136.5 606.969C136.823 607.135 137.188 607.219 137.594 607.219ZM137.594 600.375C137.958 600.375 138.281 600.299 138.563 600.148C138.844 599.997 139.065 599.789 139.227 599.523C139.388 599.258 139.469 598.958 139.469 598.625C139.469 598.292 139.388 597.997 139.227 597.742C139.065 597.482 138.844 597.279 138.563 597.133C138.281 596.982 137.958 596.906 137.594 596.906C137.234 596.906 136.911 596.982 136.625 597.133C136.344 597.279 136.122 597.482 135.961 597.742C135.799 597.997 135.719 598.292 135.719 598.625C135.719 598.958 135.799 599.258 135.961 599.523C136.122 599.784 136.344 599.992 136.625 600.148C136.911 600.299 137.234 600.375 137.594 600.375ZM153.221 610.437C151.768 610.432 150.512 610.096 149.455 609.43C148.398 608.763 147.583 607.802 147.01 606.547C146.437 605.292 146.153 603.786 146.158 602.031C146.163 600.271 146.45 598.776 147.018 597.547C147.59 596.318 148.403 595.383 149.455 594.742C150.512 594.102 151.768 593.781 153.221 593.781C154.674 593.781 155.929 594.104 156.986 594.75C158.044 595.391 158.859 596.326 159.432 597.555C160.005 598.784 160.288 600.276 160.283 602.031C160.283 603.797 159.997 605.307 159.424 606.562C158.851 607.818 158.036 608.779 156.979 609.445C155.926 610.107 154.674 610.437 153.221 610.437ZM153.221 606.906C153.971 606.906 154.585 606.516 155.064 605.734C155.549 604.948 155.788 603.714 155.783 602.031C155.783 600.932 155.674 600.034 155.455 599.336C155.236 598.638 154.934 598.122 154.549 597.789C154.163 597.451 153.721 597.281 153.221 597.281C152.471 597.281 151.859 597.661 151.385 598.422C150.911 599.182 150.669 600.385 150.658 602.031C150.653 603.151 150.76 604.073 150.979 604.797C151.197 605.516 151.499 606.047 151.885 606.391C152.275 606.734 152.721 606.906 153.221 606.906Z" fill="black"/>
<path d="M130.506 623V617.182H132.801C133.242 617.182 133.618 617.266 133.929 617.435C134.24 617.601 134.476 617.833 134.639 618.131C134.804 618.426 134.886 618.767 134.886 619.153C134.886 619.54 134.803 619.881 134.636 620.176C134.47 620.472 134.228 620.702 133.912 620.866C133.598 621.031 133.217 621.114 132.77 621.114H131.307V620.128H132.571C132.808 620.128 133.003 620.087 133.156 620.006C133.312 619.922 133.427 619.808 133.503 619.662C133.58 619.514 133.619 619.345 133.619 619.153C133.619 618.96 133.58 618.792 133.503 618.648C133.427 618.502 133.312 618.389 133.156 618.31C133.001 618.228 132.804 618.188 132.565 618.188H131.736V623H130.506ZM136.016 623H134.698L136.707 617.182H138.292L140.298 623H138.979L137.522 618.511H137.477L136.016 623ZM135.934 620.713H139.048V621.673H135.934V620.713ZM145.858 619.219H144.614C144.591 619.058 144.545 618.915 144.474 618.79C144.404 618.663 144.314 618.555 144.205 618.466C144.095 618.377 143.968 618.309 143.824 618.261C143.682 618.214 143.527 618.19 143.361 618.19C143.06 618.19 142.797 618.265 142.574 618.415C142.35 618.562 142.177 618.778 142.054 619.062C141.931 619.345 141.869 619.687 141.869 620.091C141.869 620.506 141.931 620.854 142.054 621.136C142.179 621.419 142.353 621.632 142.577 621.776C142.8 621.92 143.059 621.991 143.352 621.991C143.517 621.991 143.67 621.97 143.81 621.926C143.952 621.883 144.078 621.819 144.188 621.736C144.297 621.651 144.388 621.547 144.46 621.426C144.534 621.305 144.585 621.167 144.614 621.011L145.858 621.017C145.826 621.284 145.745 621.542 145.616 621.79C145.49 622.036 145.318 622.257 145.102 622.452C144.888 622.645 144.633 622.798 144.335 622.912C144.04 623.024 143.705 623.08 143.332 623.08C142.813 623.08 142.349 622.962 141.94 622.727C141.533 622.492 141.211 622.152 140.974 621.707C140.74 621.262 140.622 620.723 140.622 620.091C140.622 619.456 140.741 618.917 140.98 618.472C141.219 618.027 141.543 617.687 141.952 617.455C142.361 617.22 142.821 617.102 143.332 617.102C143.67 617.102 143.982 617.15 144.27 617.244C144.56 617.339 144.816 617.477 145.04 617.659C145.263 617.839 145.445 618.06 145.585 618.321C145.727 618.582 145.818 618.882 145.858 619.219Z" fill="black"/>
<path d="M200 607.12H216V591.12H200V607.12Z" fill="black"/>
<path d="M231.781 610L238.063 597.562V597.469H230.688V594H242.563V597.469L236.25 610H231.781ZM250.682 610.219C249.452 610.219 248.361 610.003 247.408 609.57C246.46 609.133 245.713 608.531 245.166 607.766C244.624 607 244.348 606.12 244.338 605.125H248.557C248.572 605.677 248.786 606.117 249.197 606.445C249.614 606.773 250.109 606.937 250.682 606.937C251.124 606.937 251.515 606.844 251.854 606.656C252.192 606.464 252.458 606.193 252.65 605.844C252.843 605.495 252.937 605.089 252.932 604.625C252.937 604.156 252.843 603.75 252.65 603.406C252.458 603.057 252.192 602.789 251.854 602.602C251.515 602.409 251.124 602.312 250.682 602.312C250.223 602.312 249.799 602.424 249.408 602.648C249.023 602.867 248.739 603.172 248.557 603.562L244.744 602.812L245.369 594H256.119V597.469H248.932L248.619 601H248.713C248.963 600.516 249.395 600.115 250.01 599.797C250.624 599.474 251.338 599.312 252.15 599.312C253.104 599.312 253.952 599.534 254.697 599.977C255.447 600.419 256.038 601.031 256.471 601.812C256.908 602.589 257.124 603.484 257.119 604.5C257.124 605.615 256.859 606.604 256.322 607.469C255.791 608.328 255.044 609.003 254.08 609.492C253.117 609.977 251.984 610.219 250.682 610.219Z" fill="black"/>
<path d="M232.568 623H230.506V617.182H232.585C233.17 617.182 233.674 617.298 234.097 617.531C234.519 617.762 234.844 618.095 235.071 618.528C235.3 618.962 235.415 619.481 235.415 620.085C235.415 620.691 235.3 621.212 235.071 621.648C234.844 622.083 234.517 622.418 234.091 622.651C233.667 622.884 233.159 623 232.568 623ZM231.736 621.946H232.517C232.881 621.946 233.187 621.882 233.435 621.753C233.685 621.622 233.872 621.42 233.997 621.148C234.124 620.873 234.188 620.519 234.188 620.085C234.188 619.655 234.124 619.304 233.997 619.031C233.872 618.759 233.686 618.558 233.438 618.429C233.189 618.3 232.884 618.236 232.52 618.236H231.736V621.946ZM236.326 623V617.182H238.621C239.061 617.182 239.436 617.26 239.746 617.418C240.059 617.573 240.297 617.794 240.46 618.08C240.624 618.364 240.707 618.698 240.707 619.082C240.707 619.469 240.623 619.801 240.457 620.08C240.29 620.356 240.049 620.568 239.732 620.716C239.418 620.864 239.037 620.938 238.59 620.938H237.053V619.949H238.391C238.626 619.949 238.821 619.917 238.977 619.852C239.132 619.788 239.247 619.691 239.323 619.562C239.401 619.434 239.44 619.274 239.44 619.082C239.44 618.889 239.401 618.726 239.323 618.594C239.247 618.461 239.131 618.361 238.974 618.293C238.818 618.223 238.622 618.188 238.386 618.188H237.556V623H236.326ZM239.468 620.352L240.914 623H239.556L238.141 620.352H239.468ZM242.806 617.182V623H241.576V617.182H242.806Z" fill="black"/>
<path d="M300 607.12H316V591.12H300V607.12Z" fill="black"/>
<path d="M337.75 610.219C336.818 610.219 335.932 610.073 335.094 609.781C334.26 609.484 333.521 609.018 332.875 608.383C332.229 607.747 331.721 606.919 331.352 605.898C330.987 604.878 330.807 603.641 330.813 602.187C330.818 600.891 330.984 599.724 331.313 598.687C331.646 597.651 332.117 596.768 332.727 596.039C333.341 595.31 334.076 594.753 334.93 594.367C335.784 593.977 336.734 593.781 337.781 593.781C338.958 593.781 339.995 594.008 340.891 594.461C341.786 594.914 342.5 595.521 343.031 596.281C343.568 597.036 343.88 597.87 343.969 598.781H339.688C339.589 598.328 339.359 597.997 339 597.789C338.646 597.576 338.24 597.469 337.781 597.469C336.87 597.469 336.201 597.865 335.773 598.656C335.352 599.448 335.135 600.49 335.125 601.781H335.219C335.422 601.292 335.729 600.872 336.141 600.523C336.552 600.174 337.031 599.906 337.578 599.719C338.125 599.531 338.703 599.437 339.313 599.437C340.281 599.437 341.128 599.656 341.852 600.094C342.581 600.531 343.148 601.13 343.555 601.891C343.961 602.651 344.161 603.521 344.156 604.5C344.161 605.646 343.891 606.648 343.344 607.508C342.802 608.367 342.049 609.034 341.086 609.508C340.122 609.982 339.01 610.219 337.75 610.219ZM337.719 606.937C338.151 606.937 338.534 606.839 338.867 606.641C339.206 606.443 339.469 606.172 339.656 605.828C339.849 605.484 339.943 605.094 339.938 604.656C339.943 604.214 339.849 603.823 339.656 603.484C339.469 603.141 339.206 602.87 338.867 602.672C338.534 602.474 338.151 602.375 337.719 602.375C337.401 602.375 337.107 602.432 336.836 602.547C336.57 602.656 336.339 602.815 336.141 603.023C335.943 603.227 335.786 603.469 335.672 603.75C335.563 604.026 335.505 604.328 335.5 604.656C335.505 605.094 335.604 605.484 335.797 605.828C335.99 606.172 336.253 606.443 336.586 606.641C336.919 606.839 337.297 606.937 337.719 606.937ZM353.092 610.437C351.639 610.432 350.383 610.096 349.326 609.43C348.269 608.763 347.454 607.802 346.881 606.547C346.308 605.292 346.024 603.786 346.029 602.031C346.035 600.271 346.321 598.776 346.889 597.547C347.462 596.318 348.274 595.383 349.326 594.742C350.383 594.102 351.639 593.781 353.092 593.781C354.545 593.781 355.8 594.104 356.857 594.75C357.915 595.391 358.73 596.326 359.303 597.555C359.876 598.784 360.16 600.276 360.154 602.031C360.154 603.797 359.868 605.307 359.295 606.562C358.722 607.818 357.907 608.779 356.85 609.445C355.798 610.107 354.545 610.437 353.092 610.437ZM353.092 606.906C353.842 606.906 354.456 606.516 354.936 605.734C355.42 604.948 355.66 603.714 355.654 602.031C355.654 600.932 355.545 600.034 355.326 599.336C355.107 598.638 354.805 598.122 354.42 597.789C354.035 597.451 353.592 597.281 353.092 597.281C352.342 597.281 351.73 597.661 351.256 598.422C350.782 599.182 350.54 600.385 350.529 602.031C350.524 603.151 350.631 604.073 350.85 604.797C351.068 605.516 351.37 606.047 351.756 606.391C352.146 606.734 352.592 606.906 353.092 606.906Z" fill="black"/>
<path d="M330.506 623V617.182H332.801C333.242 617.182 333.618 617.266 333.929 617.435C334.24 617.601 334.476 617.833 334.639 618.131C334.804 618.426 334.886 618.767 334.886 619.153C334.886 619.54 334.803 619.881 334.636 620.176C334.47 620.472 334.228 620.702 333.912 620.866C333.598 621.031 333.217 621.114 332.77 621.114H331.307V620.128H332.571C332.808 620.128 333.003 620.087 333.156 620.006C333.312 619.922 333.427 619.808 333.503 619.662C333.58 619.514 333.619 619.345 333.619 619.153C333.619 618.96 333.58 618.792 333.503 618.648C333.427 618.502 333.312 618.389 333.156 618.31C333.001 618.228 332.804 618.188 332.565 618.188H331.736V623H330.506ZM335.685 623V617.182H336.915V619.582H339.413V617.182H340.64V623H339.413V620.597H336.915V623H335.685ZM341.313 617.182H342.691L344.018 619.688H344.075L345.401 617.182H346.779L344.657 620.943V623H343.435V620.943L341.313 617.182Z" fill="black"/>
<path d="M100 652.12H116V636.12H100V652.12Z" fill="black"/>
<path d="M131.781 655L138.063 642.562V642.469H130.688V639H142.563V642.469L136.25 655H131.781ZM151.115 655.437C149.662 655.432 148.407 655.096 147.35 654.43C146.292 653.763 145.477 652.802 144.904 651.547C144.331 650.292 144.048 648.786 144.053 647.031C144.058 645.271 144.344 643.776 144.912 642.547C145.485 641.318 146.298 640.383 147.35 639.742C148.407 639.102 149.662 638.781 151.115 638.781C152.568 638.781 153.824 639.104 154.881 639.75C155.938 640.391 156.753 641.326 157.326 642.555C157.899 643.784 158.183 645.276 158.178 647.031C158.178 648.797 157.891 650.307 157.318 651.562C156.745 652.818 155.93 653.779 154.873 654.445C153.821 655.107 152.568 655.437 151.115 655.437ZM151.115 651.906C151.865 651.906 152.48 651.516 152.959 650.734C153.443 649.948 153.683 648.714 153.678 647.031C153.678 645.932 153.568 645.034 153.35 644.336C153.131 643.638 152.829 643.122 152.443 642.789C152.058 642.451 151.615 642.281 151.115 642.281C150.365 642.281 149.753 642.661 149.279 643.422C148.805 644.182 148.563 645.385 148.553 647.031C148.548 648.151 148.654 649.073 148.873 649.797C149.092 650.516 149.394 651.047 149.779 651.391C150.17 651.734 150.615 651.906 151.115 651.906Z" fill="black"/>
<path d="M131.509 668H130.19L132.199 662.182H133.784L135.79 668H134.472L133.014 663.511H132.969L131.509 668ZM131.426 665.713H134.54V666.673H131.426V665.713ZM141.35 664.219H140.106C140.083 664.058 140.037 663.915 139.967 663.79C139.897 663.663 139.807 663.555 139.697 663.466C139.587 663.377 139.46 663.309 139.316 663.261C139.174 663.214 139.02 663.19 138.853 663.19C138.552 663.19 138.29 663.265 138.066 663.415C137.843 663.562 137.669 663.778 137.546 664.062C137.423 664.345 137.362 664.687 137.362 665.091C137.362 665.506 137.423 665.854 137.546 666.136C137.671 666.419 137.845 666.632 138.069 666.776C138.292 666.92 138.551 666.991 138.844 666.991C139.009 666.991 139.162 666.97 139.302 666.926C139.444 666.883 139.57 666.819 139.68 666.736C139.79 666.651 139.88 666.547 139.952 666.426C140.026 666.305 140.077 666.167 140.106 666.011L141.35 666.017C141.318 666.284 141.237 666.542 141.109 666.79C140.982 667.036 140.81 667.257 140.594 667.452C140.38 667.645 140.125 667.798 139.827 667.912C139.532 668.024 139.198 668.08 138.825 668.08C138.306 668.08 137.842 667.962 137.433 667.727C137.025 667.492 136.703 667.152 136.467 666.707C136.232 666.262 136.114 665.723 136.114 665.091C136.114 664.456 136.234 663.917 136.472 663.472C136.711 663.027 137.035 662.687 137.444 662.455C137.853 662.22 138.313 662.102 138.825 662.102C139.162 662.102 139.474 662.15 139.762 662.244C140.052 662.339 140.308 662.477 140.532 662.659C140.755 662.839 140.937 663.06 141.077 663.321C141.219 663.582 141.31 663.882 141.35 664.219ZM147.366 664.219H146.121C146.099 664.058 146.052 663.915 145.982 663.79C145.912 663.663 145.822 663.555 145.712 663.466C145.603 663.377 145.476 663.309 145.332 663.261C145.19 663.214 145.035 663.19 144.869 663.19C144.567 663.19 144.305 663.265 144.082 663.415C143.858 663.562 143.685 663.778 143.562 664.062C143.439 664.345 143.377 664.687 143.377 665.091C143.377 665.506 143.439 665.854 143.562 666.136C143.687 666.419 143.861 666.632 144.085 666.776C144.308 666.92 144.567 666.991 144.86 666.991C145.025 666.991 145.177 666.97 145.317 666.926C145.46 666.883 145.585 666.819 145.695 666.736C145.805 666.651 145.896 666.547 145.968 666.426C146.042 666.305 146.093 666.167 146.121 666.011L147.366 666.017C147.334 666.284 147.253 666.542 147.124 666.79C146.997 667.036 146.826 667.257 146.61 667.452C146.396 667.645 146.14 667.798 145.843 667.912C145.548 668.024 145.213 668.08 144.84 668.08C144.321 668.08 143.857 667.962 143.448 667.727C143.041 667.492 142.719 667.152 142.482 666.707C142.247 666.262 142.13 665.723 142.13 665.091C142.13 664.456 142.249 663.917 142.488 663.472C142.727 663.027 143.05 662.687 143.46 662.455C143.869 662.22 144.329 662.102 144.84 662.102C145.177 662.102 145.49 662.15 145.778 662.244C146.067 662.339 146.324 662.477 146.548 662.659C146.771 662.839 146.953 663.06 147.093 663.321C147.235 663.582 147.326 663.882 147.366 664.219Z" fill="black"/>
<path d="M200 652.12H216V636.12H200V652.12Z" fill="black"/>
<path d="M237.75 655.219C236.818 655.219 235.932 655.073 235.094 654.781C234.26 654.484 233.521 654.018 232.875 653.383C232.229 652.747 231.721 651.919 231.352 650.898C230.987 649.878 230.807 648.641 230.813 647.187C230.818 645.891 230.984 644.724 231.313 643.687C231.646 642.651 232.117 641.768 232.727 641.039C233.341 640.31 234.076 639.753 234.93 639.367C235.784 638.977 236.734 638.781 237.781 638.781C238.958 638.781 239.995 639.008 240.891 639.461C241.786 639.914 242.5 640.521 243.031 641.281C243.568 642.036 243.88 642.87 243.969 643.781H239.688C239.589 643.328 239.359 642.997 239 642.789C238.646 642.576 238.24 642.469 237.781 642.469C236.87 642.469 236.201 642.865 235.773 643.656C235.352 644.448 235.135 645.49 235.125 646.781H235.219C235.422 646.292 235.729 645.872 236.141 645.523C236.552 645.174 237.031 644.906 237.578 644.719C238.125 644.531 238.703 644.437 239.313 644.437C240.281 644.437 241.128 644.656 241.852 645.094C242.581 645.531 243.148 646.13 243.555 646.891C243.961 647.651 244.161 648.521 244.156 649.5C244.161 650.646 243.891 651.648 243.344 652.508C242.802 653.367 242.049 654.034 241.086 654.508C240.122 654.982 239.01 655.219 237.75 655.219ZM237.719 651.937C238.151 651.937 238.534 651.839 238.867 651.641C239.206 651.443 239.469 651.172 239.656 650.828C239.849 650.484 239.943 650.094 239.938 649.656C239.943 649.214 239.849 648.823 239.656 648.484C239.469 648.141 239.206 647.87 238.867 647.672C238.534 647.474 238.151 647.375 237.719 647.375C237.401 647.375 237.107 647.432 236.836 647.547C236.57 647.656 236.339 647.815 236.141 648.023C235.943 648.227 235.786 648.469 235.672 648.75C235.563 649.026 235.505 649.328 235.5 649.656C235.505 650.094 235.604 650.484 235.797 650.828C235.99 651.172 236.253 651.443 236.586 651.641C236.919 651.839 237.297 651.937 237.719 651.937ZM252.529 655.219C251.3 655.219 250.209 655.003 249.256 654.57C248.308 654.133 247.561 653.531 247.014 652.766C246.472 652 246.196 651.12 246.186 650.125H250.404C250.42 650.677 250.633 651.117 251.045 651.445C251.462 651.773 251.956 651.937 252.529 651.937C252.972 651.937 253.363 651.844 253.701 651.656C254.04 651.464 254.305 651.193 254.498 650.844C254.691 650.495 254.785 650.089 254.779 649.625C254.785 649.156 254.691 648.75 254.498 648.406C254.305 648.057 254.04 647.789 253.701 647.602C253.363 647.409 252.972 647.312 252.529 647.312C252.071 647.312 251.646 647.424 251.256 647.648C250.87 647.867 250.587 648.172 250.404 648.562L246.592 647.812L247.217 639H257.967V642.469H250.779L250.467 646H250.561C250.811 645.516 251.243 645.115 251.857 644.797C252.472 644.474 253.186 644.312 253.998 644.312C254.951 644.312 255.8 644.534 256.545 644.977C257.295 645.419 257.886 646.031 258.318 646.812C258.756 647.589 258.972 648.484 258.967 649.5C258.972 650.615 258.706 651.604 258.17 652.469C257.639 653.328 256.891 654.003 255.928 654.492C254.964 654.977 253.831 655.219 252.529 655.219Z" fill="black"/>
<path d="M230.284 663.196V662.182H235.062V663.196H233.281V668H232.065V663.196H230.284ZM236.141 668H234.823L236.832 662.182H238.417L240.423 668H239.104L237.647 663.511H237.602L236.141 668ZM236.059 665.713H239.173V666.673H236.059V665.713ZM245.983 664.219H244.739C244.716 664.058 244.67 663.915 244.599 663.79C244.529 663.663 244.439 663.555 244.33 663.466C244.22 663.377 244.093 663.309 243.949 663.261C243.807 663.214 243.652 663.19 243.486 663.19C243.185 663.19 242.922 663.265 242.699 663.415C242.475 663.562 242.302 663.778 242.179 664.062C242.056 664.345 241.994 664.687 241.994 665.091C241.994 665.506 242.056 665.854 242.179 666.136C242.304 666.419 242.478 666.632 242.702 666.776C242.925 666.92 243.184 666.991 243.477 666.991C243.642 666.991 243.795 666.97 243.935 666.926C244.077 666.883 244.203 666.819 244.312 666.736C244.422 666.651 244.513 666.547 244.585 666.426C244.659 666.305 244.71 666.167 244.739 666.011L245.983 666.017C245.951 666.284 245.87 666.542 245.741 666.79C245.615 667.036 245.443 667.257 245.227 667.452C245.013 667.645 244.758 667.798 244.46 667.912C244.165 668.024 243.83 668.08 243.457 668.08C242.938 668.08 242.474 667.962 242.065 667.727C241.658 667.492 241.336 667.152 241.099 666.707C240.865 666.262 240.747 665.723 240.747 665.091C240.747 664.456 240.866 663.917 241.105 663.472C241.344 663.027 241.668 662.687 242.077 662.455C242.486 662.22 242.946 662.102 243.457 662.102C243.795 662.102 244.107 662.15 244.395 662.244C244.685 662.339 244.941 662.477 245.165 662.659C245.388 662.839 245.57 663.06 245.71 663.321C245.852 663.582 245.943 663.882 245.983 664.219ZM246.643 663.196V662.182H251.422V663.196H249.641V668H248.425V663.196H246.643Z" fill="black"/>
<path d="M300 652.12H316V636.12H300V652.12Z" fill="black"/>
<path d="M337.594 655.219C336.302 655.219 335.148 655.018 334.133 654.617C333.122 654.216 332.326 653.672 331.742 652.984C331.164 652.297 330.875 651.521 330.875 650.656C330.875 649.995 331.039 649.391 331.367 648.844C331.701 648.297 332.148 647.844 332.711 647.484C333.273 647.12 333.901 646.885 334.594 646.781V646.656C333.682 646.5 332.932 646.096 332.344 645.445C331.76 644.789 331.469 644.016 331.469 643.125C331.469 642.286 331.734 641.542 332.266 640.891C332.797 640.234 333.523 639.719 334.445 639.344C335.367 638.969 336.417 638.781 337.594 638.781C338.771 638.781 339.82 638.971 340.742 639.352C341.664 639.727 342.391 640.242 342.922 640.898C343.453 641.549 343.719 642.292 343.719 643.125C343.719 644.021 343.422 644.794 342.828 645.445C342.234 646.096 341.49 646.5 340.594 646.656V646.781C341.281 646.885 341.906 647.12 342.469 647.484C343.031 647.844 343.479 648.297 343.813 648.844C344.146 649.391 344.313 649.995 344.313 650.656C344.313 651.521 344.021 652.297 343.438 652.984C342.859 653.672 342.063 654.216 341.047 654.617C340.036 655.018 338.885 655.219 337.594 655.219ZM337.594 652.219C338.005 652.219 338.37 652.135 338.688 651.969C339.005 651.802 339.255 651.573 339.438 651.281C339.625 650.984 339.719 650.651 339.719 650.281C339.719 649.911 339.625 649.583 339.438 649.297C339.255 649.01 339.005 648.786 338.688 648.625C338.37 648.458 338.005 648.375 337.594 648.375C337.188 648.375 336.823 648.458 336.5 648.625C336.182 648.786 335.93 649.01 335.742 649.297C335.56 649.583 335.469 649.911 335.469 650.281C335.469 650.651 335.56 650.982 335.742 651.273C335.93 651.565 336.182 651.797 336.5 651.969C336.823 652.135 337.188 652.219 337.594 652.219ZM337.594 645.375C337.958 645.375 338.281 645.299 338.563 645.148C338.844 644.997 339.065 644.789 339.227 644.523C339.388 644.258 339.469 643.958 339.469 643.625C339.469 643.292 339.388 642.997 339.227 642.742C339.065 642.482 338.844 642.279 338.563 642.133C338.281 641.982 337.958 641.906 337.594 641.906C337.234 641.906 336.911 641.982 336.625 642.133C336.344 642.279 336.122 642.482 335.961 642.742C335.799 642.997 335.719 643.292 335.719 643.625C335.719 643.958 335.799 644.258 335.961 644.523C336.122 644.784 336.344 644.992 336.625 645.148C336.911 645.299 337.234 645.375 337.594 645.375ZM352.658 655.219C351.429 655.219 350.338 655.003 349.385 654.57C348.437 654.133 347.689 653.531 347.143 652.766C346.601 652 346.325 651.12 346.314 650.125H350.533C350.549 650.677 350.762 651.117 351.174 651.445C351.59 651.773 352.085 651.937 352.658 651.937C353.101 651.937 353.492 651.844 353.83 651.656C354.169 651.464 354.434 651.193 354.627 650.844C354.82 650.495 354.913 650.089 354.908 649.625C354.913 649.156 354.82 648.75 354.627 648.406C354.434 648.057 354.169 647.789 353.83 647.602C353.492 647.409 353.101 647.312 352.658 647.312C352.2 647.312 351.775 647.424 351.385 647.648C350.999 647.867 350.715 648.172 350.533 648.562L346.721 647.812L347.346 639H358.096V642.469H350.908L350.596 646H350.689C350.939 645.516 351.372 645.115 351.986 644.797C352.601 644.474 353.314 644.312 354.127 644.312C355.08 644.312 355.929 644.534 356.674 644.977C357.424 645.419 358.015 646.031 358.447 646.812C358.885 647.589 359.101 648.484 359.096 649.5C359.101 650.615 358.835 651.604 358.299 652.469C357.768 653.328 357.02 654.003 356.057 654.492C355.093 654.977 353.96 655.219 352.658 655.219Z" fill="black"/>
<path d="M330.506 668V662.182H332.801C333.242 662.182 333.618 662.266 333.929 662.435C334.24 662.601 334.476 662.833 334.639 663.131C334.804 663.426 334.886 663.767 334.886 664.153C334.886 664.54 334.803 664.881 334.636 665.176C334.47 665.472 334.228 665.702 333.912 665.866C333.598 666.031 333.217 666.114 332.77 666.114H331.307V665.128H332.571C332.808 665.128 333.003 665.087 333.156 665.006C333.312 664.922 333.427 664.808 333.503 664.662C333.58 664.514 333.619 664.345 333.619 664.153C333.619 663.96 333.58 663.792 333.503 663.648C333.427 663.502 333.312 663.389 333.156 663.31C333.001 663.228 332.804 663.188 332.565 663.188H331.736V668H330.506ZM338.842 663.855C338.819 663.626 338.721 663.448 338.549 663.321C338.377 663.194 338.143 663.131 337.847 663.131C337.647 663.131 337.477 663.159 337.339 663.216C337.201 663.271 337.094 663.348 337.021 663.446C336.949 663.545 336.913 663.656 336.913 663.781C336.909 663.885 336.931 663.976 336.978 664.054C337.027 664.132 337.094 664.199 337.18 664.256C337.265 664.311 337.363 664.359 337.475 664.401C337.587 664.44 337.706 664.474 337.833 664.503L338.356 664.628C338.61 664.685 338.843 664.76 339.055 664.855C339.267 664.95 339.451 665.066 339.606 665.205C339.761 665.343 339.881 665.506 339.967 665.693C340.054 665.881 340.098 666.096 340.1 666.338C340.098 666.694 340.007 667.003 339.827 667.264C339.649 667.524 339.392 667.725 339.055 667.869C338.719 668.011 338.315 668.082 337.842 668.082C337.372 668.082 336.963 668.01 336.614 667.866C336.268 667.723 335.997 667.509 335.802 667.227C335.609 666.943 335.507 666.592 335.498 666.173H336.688C336.701 666.368 336.757 666.531 336.856 666.662C336.956 666.791 337.09 666.888 337.256 666.955C337.425 667.019 337.615 667.051 337.827 667.051C338.036 667.051 338.217 667.021 338.37 666.96C338.525 666.9 338.646 666.815 338.731 666.707C338.816 666.599 338.859 666.475 338.859 666.335C338.859 666.205 338.82 666.095 338.742 666.006C338.666 665.917 338.555 665.841 338.407 665.778C338.261 665.716 338.082 665.659 337.87 665.608L337.237 665.449C336.746 665.33 336.359 665.143 336.075 664.889C335.79 664.635 335.649 664.294 335.651 663.864C335.649 663.511 335.743 663.204 335.933 662.94C336.124 662.677 336.386 662.472 336.719 662.324C337.053 662.176 337.432 662.102 337.856 662.102C338.288 662.102 338.665 662.176 338.987 662.324C339.31 662.472 339.562 662.677 339.742 662.94C339.922 663.204 340.015 663.509 340.021 663.855H338.842ZM340.587 662.182H341.964L343.291 664.688H343.348L344.675 662.182H346.053L343.93 665.943V668H342.709V665.943L340.587 662.182ZM351.506 664.219H350.262C350.239 664.058 350.193 663.915 350.123 663.79C350.053 663.663 349.963 663.555 349.853 663.466C349.743 663.377 349.616 663.309 349.472 663.261C349.33 663.214 349.176 663.19 349.009 663.19C348.708 663.19 348.446 663.265 348.222 663.415C347.999 663.562 347.826 663.778 347.702 664.062C347.579 664.345 347.518 664.687 347.518 665.091C347.518 665.506 347.579 665.854 347.702 666.136C347.827 666.419 348.002 666.632 348.225 666.776C348.449 666.92 348.707 666.991 349.001 666.991C349.165 666.991 349.318 666.97 349.458 666.926C349.6 666.883 349.726 666.819 349.836 666.736C349.946 666.651 350.037 666.547 350.109 666.426C350.183 666.305 350.234 666.167 350.262 666.011L351.506 666.017C351.474 666.284 351.394 666.542 351.265 666.79C351.138 667.036 350.967 667.257 350.751 667.452C350.537 667.645 350.281 667.798 349.984 667.912C349.688 668.024 349.354 668.08 348.981 668.08C348.462 668.08 347.998 667.962 347.589 667.727C347.182 667.492 346.86 667.152 346.623 666.707C346.388 666.262 346.271 665.723 346.271 665.091C346.271 664.456 346.39 663.917 346.629 663.472C346.867 663.027 347.191 662.687 347.6 662.455C348.009 662.22 348.469 662.102 348.981 662.102C349.318 662.102 349.63 662.15 349.918 662.244C350.208 662.339 350.465 662.477 350.688 662.659C350.912 662.839 351.094 663.06 351.234 663.321C351.376 663.582 351.467 663.882 351.506 664.219ZM352.388 668V662.182H353.619V664.582H356.116V662.182H357.343V668H356.116V665.597H353.619V668H352.388Z" fill="black"/>
<path d="M189.75 692.455C189.75 692.183 189.816 691.935 189.949 691.711C190.081 691.488 190.26 691.309 190.483 691.177C190.707 691.044 190.955 690.978 191.227 690.978C191.462 690.978 191.679 691.029 191.878 691.13C192.078 691.231 192.244 691.369 192.375 691.545C192.506 691.719 192.587 691.916 192.619 692.136H192.017C191.984 691.966 191.892 691.826 191.741 691.719C191.59 691.609 191.419 691.555 191.227 691.555C191.061 691.555 190.91 691.595 190.774 691.676C190.638 691.758 190.53 691.866 190.449 692.002C190.367 692.138 190.327 692.289 190.327 692.455C190.327 692.62 190.367 692.771 190.449 692.907C190.53 693.043 190.638 693.151 190.774 693.233C190.91 693.314 191.061 693.354 191.227 693.354C191.419 693.354 191.581 693.301 191.714 693.193C191.848 693.083 191.933 692.943 191.967 692.773H192.569C192.537 692.993 192.46 693.191 192.338 693.367C192.215 693.541 192.058 693.678 191.865 693.779C191.675 693.881 191.462 693.931 191.227 693.931C190.955 693.931 190.707 693.865 190.483 693.732C190.26 693.6 190.081 693.422 189.949 693.198C189.816 692.974 189.75 692.726 189.75 692.455ZM191.202 695.08C190.84 695.08 190.501 695.012 190.183 694.876C189.866 694.74 189.587 694.552 189.345 694.311C189.105 694.069 188.916 693.79 188.778 693.474C188.642 693.157 188.575 692.817 188.577 692.455C188.578 692.092 188.647 691.752 188.783 691.435C188.921 691.119 189.109 690.84 189.35 690.6C189.59 690.358 189.868 690.169 190.185 690.033C190.502 689.897 190.84 689.83 191.202 689.83C191.565 689.83 191.904 689.897 192.221 690.033C192.539 690.169 192.817 690.358 193.056 690.6C193.296 690.84 193.484 691.119 193.62 691.435C193.756 691.752 193.825 692.092 193.827 692.455C193.828 692.817 193.761 693.157 193.625 693.474C193.489 693.79 193.301 694.069 193.061 694.311C192.821 694.552 192.542 694.74 192.223 694.876C191.905 695.012 191.565 695.08 191.202 695.08ZM191.202 694.503C191.485 694.503 191.751 694.45 192 694.344C192.248 694.238 192.466 694.091 192.653 693.904C192.841 693.717 192.987 693.499 193.093 693.252C193.199 693.004 193.252 692.739 193.25 692.457C193.248 692.174 193.194 691.908 193.088 691.659C192.982 691.411 192.836 691.193 192.648 691.005C192.461 690.818 192.244 690.671 191.997 690.565C191.75 690.459 191.485 690.406 191.202 690.406C190.92 690.406 190.656 690.459 190.409 690.565C190.162 690.671 189.945 690.819 189.757 691.008C189.57 691.195 189.423 691.413 189.315 691.662C189.209 691.908 189.155 692.174 189.153 692.457C189.152 692.737 189.204 693.001 189.31 693.25C189.416 693.497 189.563 693.714 189.75 693.901C189.939 694.089 190.157 694.236 190.404 694.344C190.652 694.45 190.918 694.503 191.202 694.503ZM195.022 695V689.909H198.074V690.456H195.638V692.176H197.846V692.723H195.638V695H195.022ZM200.701 695H199.13V689.909H200.771C201.265 689.909 201.687 690.011 202.039 690.215C202.39 690.417 202.659 690.708 202.846 691.087C203.034 691.465 203.127 691.918 203.127 692.445C203.127 692.975 203.033 693.431 202.844 693.814C202.655 694.195 202.38 694.489 202.019 694.694C201.657 694.898 201.218 695 200.701 695ZM199.747 694.453H200.661C201.082 694.453 201.431 694.372 201.708 694.21C201.985 694.047 202.191 693.816 202.327 693.516C202.463 693.216 202.531 692.859 202.531 692.445C202.531 692.034 202.464 691.68 202.329 691.383C202.195 691.085 201.995 690.856 201.728 690.697C201.461 690.536 201.129 690.456 200.731 690.456H199.747V694.453ZM204.161 695V689.909H204.778V694.453H207.144V695H204.161Z" fill="black" fill-opacity="0.5"/>
</g>
<defs>
<linearGradient id="paint0_linear_4_2" x1="0" y1="290" x2="400" y2="290" gradientUnits="userSpaceOnUse">
<stop stop-color="#B3B3B3"/>
<stop offset="1" stop-color="#666666"/>
</linearGradient>
<clipPath id="clip0_4_2">
<rect width="400" height="700" rx="16" fill="white"/>
</clipPath>
</defs>
</svg>
